<svg width="16" height="16" viewBox="0 0 16 16" fill="none" xmlns="http://www.w3.org/2000/svg">
<g clip-path="url(#clip0_19_83)">
<path opacity="0.16" d="M4.82801 7.38879C5.12734 6.27279 6.27467 5.12612 7.39001 4.82679L14.346 2.96279C15.4613 2.66412 16.1233 3.32612 15.8247 4.44145L13.96 11.3975C13.6607 12.5135 12.5133 13.6601 11.398 13.9595L4.44267 15.8235C3.32734 16.1221 2.66534 15.4601 2.96401 14.3448L4.82801 7.38879Z" fill="#5CEA5A"/>
<path d="M2.03998 4.59997C2.33865 3.48397 3.48531 2.3373 4.60131 2.03797L11.5573 0.173969C12.6726 -0.124698 13.3353 0.537303 13.036 1.65264L11.172 8.60864C10.8726 9.72464 9.72598 10.8713 8.60998 11.1706L1.65398 13.0346C0.538645 13.3333 -0.123355 12.6713 0.175312 11.556L2.03998 4.59997Z" fill="#5CEA5A"/>
</g>
<defs>
<clipPath id="clip0_19_83">
<rect width="16" height="16" fill="white"/>
</clipPath>
</defs>
</svg>
