<svg width="516" height="361" viewBox="0 0 516 361" fill="none" xmlns="http://www.w3.org/2000/svg">
<g clip-path="url(#clip0_2_2)">
<rect width="515.48" height="360.86" fill="#FFFFFF"/>
<path d="M83.4815 179.346C94.5272 179.346 103.481 170.611 103.481 159.837C103.481 149.062 94.5272 140.328 83.4815 140.328C72.4358 140.328 63.4816 149.062 63.4816 159.837C63.4816 170.611 72.4358 179.346 83.4815 179.346Z" fill="#90F06E"/>
<path d="M49.9816 196.904C57.4375 196.904 63.4816 191.008 63.4816 183.735C63.4816 176.463 57.4375 170.567 49.9816 170.567C42.5258 170.567 36.4817 176.463 36.4817 183.735C36.4817 191.008 42.5258 196.904 49.9816 196.904Z" fill="#90F06E"/>
<path d="M51.9817 160.812C56.1238 160.812 59.4816 157.537 59.4816 153.497C59.4816 149.456 56.1238 146.181 51.9817 146.181C47.8395 146.181 44.4817 149.456 44.4817 153.497C44.4817 157.537 47.8395 160.812 51.9817 160.812Z" fill="#90F06E"/>
<path d="M495.48 311.031C506.526 311.031 515.48 302.297 515.48 291.522C515.48 280.748 506.526 272.013 495.48 272.013C484.434 272.013 475.48 280.748 475.48 291.522C475.48 302.297 484.434 311.031 495.48 311.031Z" fill="#90F06E"/>
<path d="M14.9818 68.1448C19.1239 68.1448 22.4818 64.8694 22.4818 60.829C22.4818 56.7885 19.1239 53.5131 14.9818 53.5131C10.8397 53.5131 7.48181 56.7885 7.48181 60.829C7.48181 64.8694 10.8397 68.1448 14.9818 68.1448Z" fill="#90F06E"/>
<path d="M139.981 324.687C159.587 324.687 175.481 309.184 175.481 290.059C175.481 270.934 159.587 255.431 139.981 255.431C120.375 255.431 104.481 270.934 104.481 290.059C104.481 309.184 120.375 324.687 139.981 324.687Z" fill="#E2FBE1"/>
<path d="M374.481 341.27C387.735 341.27 398.48 330.789 398.48 317.859C398.48 304.93 387.735 294.449 374.481 294.449C361.226 294.449 350.481 304.93 350.481 317.859C350.481 330.789 361.226 341.27 374.481 341.27Z" fill="#E2FBE1"/>
<path d="M466.48 209.585C473.66 209.585 479.48 203.907 479.48 196.904C479.48 189.9 473.66 184.223 466.48 184.223C459.301 184.223 453.48 189.9 453.48 196.904C453.48 203.907 459.301 209.585 466.48 209.585Z" fill="#E2FBE1"/>
<path d="M369.48 108.138C383.84 108.138 395.48 96.7834 395.48 82.7765C395.48 68.7697 383.84 57.4149 369.48 57.4149C355.121 57.4149 343.481 68.7697 343.481 82.7765C343.481 96.7834 355.121 108.138 369.48 108.138Z" fill="#E2FBE1"/>
<path d="M130.981 27.1761C137.885 27.1761 143.481 21.7171 143.481 14.983C143.481 8.24895 137.885 2.78992 130.981 2.78992C124.078 2.78992 118.481 8.24895 118.481 14.983C118.481 21.7171 124.078 27.1761 130.981 27.1761Z" fill="#E2FBE1"/>
<path d="M90.9815 270.062C97.8851 270.062 103.481 264.603 103.481 257.869C103.481 251.135 97.8851 245.676 90.9815 245.676C84.078 245.676 78.4816 251.135 78.4816 257.869C78.4816 264.603 84.078 270.062 90.9815 270.062Z" fill="#E2FBE1"/>
<path d="M493.98 128.623C500.884 128.623 506.48 123.164 506.48 116.429C506.48 109.695 500.884 104.236 493.98 104.236C487.077 104.236 481.48 109.695 481.48 116.429C481.48 123.164 487.077 128.623 493.98 128.623Z" fill="#90F06E"/>
<path d="M473.98 336.393C481.436 336.393 487.48 330.497 487.48 323.224C487.48 315.952 481.436 310.056 473.98 310.056C466.524 310.056 460.48 315.952 460.48 323.224C460.48 330.497 466.524 336.393 473.98 336.393Z" fill="#90F06E"/>
<path d="M503.98 337.368C508.122 337.368 511.48 334.093 511.48 330.052C511.48 326.012 508.122 322.737 503.98 322.737C499.838 322.737 496.48 326.012 496.48 330.052C496.48 334.093 499.838 337.368 503.98 337.368Z" fill="#90F06E"/>
</g>
<defs>
<clipPath id="clip0_2_2">
<rect width="515.48" height="360.86" fill="white"/>
</clipPath>
</defs>
</svg>
