<svg width="20" height="20" viewBox="0 0 20 20" fill="none" xmlns="http://www.w3.org/2000/svg">
<g clip-path="url(#clip0_207_40)">
<path d="M3.33317 8.33317V6.24984C3.33317 6.13933 3.28927 6.03335 3.21113 5.95521C3.13299 5.87707 3.02701 5.83317 2.9165 5.83317C2.806 5.83317 2.70002 5.87707 2.62188 5.95521C2.54374 6.03335 2.49984 6.13933 2.49984 6.24984V8.33317C2.27882 8.33317 2.06686 8.42097 1.91058 8.57725C1.7543 8.73353 1.6665 8.94549 1.6665 9.1665V10.8332C1.6665 11.0542 1.7543 11.2661 1.91058 11.4224C2.06686 11.5787 2.27882 11.6665 2.49984 11.6665V13.7498C2.49984 13.8603 2.54374 13.9663 2.62188 14.0445C2.70002 14.1226 2.806 14.1665 2.9165 14.1665C3.02701 14.1665 3.13299 14.1226 3.21113 14.0445C3.28927 13.9663 3.33317 13.8603 3.33317 13.7498V11.6665C3.55418 11.6665 3.76615 11.5787 3.92243 11.4224C4.07871 11.2661 4.1665 11.0542 4.1665 10.8332V9.1665C4.1665 8.94549 4.07871 8.73353 3.92243 8.57725C3.76615 8.42097 3.55418 8.33317 3.33317 8.33317ZM3.33317 10.8332H2.49984V9.1665H3.33317V10.8332ZM14.5832 16.6665H11.6665C11.6665 16.4455 11.5787 16.2335 11.4224 16.0772C11.2661 15.921 11.0542 15.8332 10.8332 15.8332H9.1665C8.94549 15.8332 8.73353 15.921 8.57725 16.0772C8.42097 16.2335 8.33317 16.4455 8.33317 16.6665H5.4165C5.306 16.6665 5.20002 16.7104 5.12188 16.7885C5.04374 16.8667 4.99984 16.9727 4.99984 17.0832C4.99984 17.1937 5.04374 17.2997 5.12188 17.3778C5.20002 17.4559 5.306 17.4998 5.4165 17.4998H8.33317C8.33317 17.7209 8.42097 17.9328 8.57725 18.0891C8.73353 18.2454 8.94549 18.3332 9.1665 18.3332H10.8332C11.0542 18.3332 11.2661 18.2454 11.4224 18.0891C11.5787 17.9328 11.6665 17.7209 11.6665 17.4998H14.5832C14.6937 17.4998 14.7997 17.4559 14.8778 17.3778C14.9559 17.2997 14.9998 17.1937 14.9998 17.0832C14.9998 16.9727 14.9559 16.8667 14.8778 16.7885C14.7997 16.7104 14.6937 16.6665 14.5832 16.6665ZM10.8332 17.4998H9.1665V16.6665H10.8332V17.4998ZM17.4998 8.33317V6.24984C17.4998 6.13933 17.4559 6.03335 17.3778 5.95521C17.2997 5.87707 17.1937 5.83317 17.0832 5.83317C16.9727 5.83317 16.8667 5.87707 16.7885 5.95521C16.7104 6.03335 16.6665 6.13933 16.6665 6.24984V8.33317C16.4455 8.33317 16.2335 8.42097 16.0772 8.57725C15.921 8.73353 15.8332 8.94549 15.8332 9.1665V10.8332C15.8332 11.0542 15.921 11.2661 16.0772 11.4224C16.2335 11.5787 16.4455 11.6665 16.6665 11.6665V13.7498C16.6665 13.8603 16.7104 13.9663 16.7885 14.0445C16.8667 14.1226 16.9727 14.1665 17.0832 14.1665C17.1937 14.1665 17.2997 14.1226 17.3778 14.0445C17.4559 13.9663 17.4998 13.8603 17.4998 13.7498V11.6665C17.7209 11.6665 17.9328 11.5787 18.0891 11.4224C18.2454 11.2661 18.3332 11.0542 18.3332 10.8332V9.1665C18.3332 8.94549 18.2454 8.73353 18.0891 8.57725C17.9328 8.42097 17.7209 8.33317 17.4998 8.33317ZM17.4998 10.8332H16.6665V9.1665H17.4998V10.8332ZM14.5832 2.49984H11.6665C11.6665 2.27882 11.5787 2.06686 11.4224 1.91058C11.2661 1.7543 11.0542 1.6665 10.8332 1.6665H9.1665C8.94549 1.6665 8.73353 1.7543 8.57725 1.91058C8.42097 2.06686 8.33317 2.27882 8.33317 2.49984H5.4165C5.306 2.49984 5.20002 2.54374 5.12188 2.62188C5.04374 2.70002 4.99984 2.806 4.99984 2.9165C4.99984 3.02701 5.04374 3.13299 5.12188 3.21113C5.20002 3.28927 5.306 3.33317 5.4165 3.33317H8.33317C8.33317 3.55418 8.42097 3.76615 8.57725 3.92243C8.73353 4.07871 8.94549 4.1665 9.1665 4.1665H10.8332C11.0542 4.1665 11.2661 4.07871 11.4224 3.92243C11.5787 3.76615 11.6665 3.55418 11.6665 3.33317H14.5832C14.6937 3.33317 14.7997 3.28927 14.8778 3.21113C14.9559 3.13299 14.9998 3.02701 14.9998 2.9165C14.9998 2.806 14.9559 2.70002 14.8778 2.62188C14.7997 2.54374 14.6937 2.49984 14.5832 2.49984ZM10.8332 3.33317H9.1665V2.49984H10.8332V3.33317Z" fill="#0C9900"/>
<path d="M5.80417 1.51678C5.71667 1.30011 5.80417 1.38761 3.10417 0.0459476L2.99167 0.000114221C2.94245 -0.0124079 2.89088 -0.0124079 2.84167 0.000114221L2.72917 0.0459476C0.0541667 1.38345 0.191667 1.29595 0.108333 1.39178C0.0417114 1.46829 0.00345696 1.56539 0 1.66678L0 5.00011C0.000233211 5.07706 0.0217682 5.15244 0.062218 5.21789C0.102668 5.28335 0.160452 5.33632 0.229167 5.37095L2.75 6.62095C2.80206 6.64575 2.859 6.65862 2.91667 6.65862C2.97433 6.65862 3.03127 6.64575 3.08333 6.62095C3.21667 6.56261 2.525 6.90428 5.58333 5.37095C5.65594 5.33929 5.71803 5.28759 5.7623 5.22192C5.80658 5.15624 5.83122 5.0793 5.83333 5.00011C5.83333 1.37511 5.83333 1.63345 5.80417 1.51678ZM2.91667 2.45011L1.35 1.66678L2.91667 0.883448L4.48333 1.66678L2.91667 2.45011ZM0.833333 2.34178L2.5 3.17511V5.57511L0.833333 4.74178V2.34178ZM5 4.74178L3.33333 5.57511V3.17511L5 2.34178V4.74178ZM5.80417 14.8501C5.71667 14.6293 5.80417 14.7293 3.10417 13.3793L2.99167 13.3334C2.94245 13.3209 2.89088 13.3209 2.84167 13.3334L2.72917 13.3668C0 14.7501 0.1875 14.6334 0.108333 14.7251C0.0417114 14.8016 0.00345696 14.8987 0 15.0001L0 18.3334C0.000233211 18.4104 0.0217682 18.4858 0.062218 18.5512C0.102668 18.6167 0.160452 18.6697 0.229167 18.7043L2.75 19.9543C2.80206 19.9791 2.859 19.992 2.91667 19.992C2.97433 19.992 3.03127 19.9791 3.08333 19.9543C3.21667 19.8959 2.525 20.2376 5.58333 18.7043C5.65594 18.6726 5.71803 18.6209 5.7623 18.5552C5.80658 18.4896 5.83122 18.4126 5.83333 18.3334C5.83333 14.7084 5.83333 14.9668 5.80417 14.8501ZM2.91667 15.7834L1.35 15.0001L2.91667 14.2168L4.48333 15.0001L2.91667 15.7834ZM0.833333 15.6751L2.5 16.5084V18.9084L0.833333 18.0751V15.6751ZM5 18.0751L3.33333 18.9084V16.5084L5 15.6751V18.0751ZM20 1.54595C19.9838 1.49243 19.957 1.44272 19.9212 1.39977C19.8855 1.35682 19.8414 1.32151 19.7917 1.29595C17.175 0.000114263 17.2375 0.000114221 17.0833 0.000114221C16.9292 0.000114221 16.9875 0.000114263 14.3958 1.29178C14.3461 1.31734 14.302 1.35265 14.2663 1.3956C14.2305 1.43855 14.2037 1.48826 14.1875 1.54178C14.1583 1.63761 14.1875 1.37511 14.1875 4.99595C14.1877 5.07289 14.2093 5.14827 14.2497 5.21373C14.2902 5.27918 14.348 5.33216 14.4167 5.36678L16.9375 6.61678C16.9896 6.64158 17.0465 6.65446 17.1042 6.65446C17.1618 6.65446 17.2188 6.64158 17.2708 6.61678C17.4042 6.55845 16.7125 6.90011 19.7917 5.36678C19.8559 5.32972 19.909 5.27621 19.9456 5.21175C19.9823 5.1473 20.001 5.07424 20 5.00011C20 1.33761 20 1.63761 20 1.54595ZM17.0833 2.45011L15.5167 1.66678L17.0833 0.883448L18.65 1.66678L17.0833 2.45011ZM15 2.34178L16.6667 3.17511V5.57511L15 4.74178V2.34178ZM19.1667 4.74178L17.5 5.57511V3.17511L19.1667 2.34178V4.74178ZM19.9708 14.8501C19.8833 14.6293 19.9708 14.7251 17.2708 13.3793L17.1583 13.3334C17.1091 13.3209 17.0576 13.3209 17.0083 13.3334L16.8958 13.3668C14.0958 14.7668 14.35 14.6168 14.275 14.7126C14.2056 14.7924 14.1672 14.8944 14.1667 15.0001V18.3334C14.1669 18.4104 14.1884 18.4858 14.2289 18.5512C14.2693 18.6167 14.3271 18.6697 14.3958 18.7043L16.9167 19.9543C16.9687 19.9791 17.0257 19.992 17.0833 19.992C17.141 19.992 17.1979 19.9791 17.25 19.9543C17.3833 19.8959 16.6917 20.2376 19.7708 18.7043C19.8395 18.6697 19.8973 18.6167 19.9378 18.5512C19.9782 18.4858 19.9998 18.4104 20 18.3334C20 14.7084 20 14.9668 19.9708 14.8501ZM17.0833 15.7834L15.5167 15.0001L17.0833 14.2168L18.65 15.0001L17.0833 15.7834ZM15 15.6751L16.6667 16.5084V18.9084L15 18.0751V15.6751ZM19.1667 18.0751L17.5 18.9084V16.5084L19.1667 15.6751V18.0751Z" fill="#0C9900"/>
<path d="M6.25 12.4999L9.58333 13.9833V9.43743L6.25 7.9541V12.4999Z" fill="#0C9900"/>
<path d="M10.0002 5.8335L6.7627 7.271L10.0002 8.71266L13.2377 7.271L10.0002 5.8335Z" fill="#0C9900"/>
<path d="M10.4165 9.43743V13.9833L13.7498 12.4999V7.9541L10.4165 9.43743Z" fill="#0C9900"/>
</g>
<defs>
<clipPath id="clip0_207_40">
<rect width="20" height="20" fill="white"/>
</clipPath>
</defs>
</svg>
