<svg xmlns="http://www.w3.org/2000/svg" xmlns:xlink="http://www.w3.org/1999/xlink" data-name="Layer 1" viewBox="0 0 512 512" id="certificate"><defs><linearGradient id="a" x1="255.865" x2="255.865" y1="22" y2="480.528" gradientUnits="userSpaceOnUse"><stop offset="0" stop-color="#00efd1"></stop><stop offset="1" stop-color="#00acea"></stop></linearGradient><linearGradient id="b" x1="399.056" x2="399.056" y1="22" y2="480.528" xlink:href="#a"></linearGradient><linearGradient id="c" x1="399.055" x2="399.055" y1="22" y2="480.528" xlink:href="#a"></linearGradient><linearGradient id="d" x1="167.751" x2="167.751" y1="22" y2="480.528" xlink:href="#a"></linearGradient><linearGradient id="e" x1="209.421" x2="209.421" y1="22" y2="480.528" xlink:href="#a"></linearGradient></defs><path fill="url(#a)" d="M503.086,322.291,484.2,308.144l10.88-20.944a6.6,6.6,0,0,0-4.595-9.529l-23.148-4.5.738-23.622a6.6,6.6,0,0,0-8.271-6.595l-22.848,5.984-9.6-21.615a6.633,6.633,0,0,0-4.57-3.753,6.267,6.267,0,0,0-5.557,1.411L402,238.087V9.919C402,6.606,398.948,4,395.635,4H125.3a6,6,0,0,0,0,12H390V232.265l-8.75-7.29a6.825,6.825,0,0,0-5.835-1.408,6.712,6.712,0,0,0-4.613,3.756l-9.6,21.61-1.2-.313V53.53c0-3.314-2.722-5.53-6.035-5.53H83.629a5.766,5.766,0,0,0-6,5.672L75.586,317H12.269A6.315,6.315,0,0,0,6,323.093v17.991C6,377.266,34,406.9,68,408.6v.4H291v-.47c1,.091,2.735.154,4.136.154A62.547,62.547,0,0,0,330.3,397.921l-.249,7.733a6.6,6.6,0,0,0,8.266,6.6l2.473-.648-24.893,60.438a12.019,12.019,0,0,0,14.817,16.012l23.133-7.473,10.123,20.752a11.873,11.873,0,0,0,10.782,6.751c.139,0,.278,0,.419-.007a11.881,11.881,0,0,0,10.73-7.47l13.515-33.1,12.8,31.294a11.881,11.881,0,0,0,10.73,7.47c.14.005.28.007.419.007a11.873,11.873,0,0,0,10.782-6.751l10.146-20.763,23.111,7.485a12.02,12.02,0,0,0,14.817-16.013l-24.059-58.414,1.644.431a6.6,6.6,0,0,0,8.268-6.594l-.738-23.624,23.146-4.506a6.6,6.6,0,0,0,4.6-9.524l-10.886-20.954,18.9-14.2a6.6,6.6,0,0,0-.01-10.561ZM71.128,397C41.981,397,18,371.742,18,341.084V329H230v12.084C230,364.11,241.357,384,258.275,397Zm223.854-.316c-29.146,0-52.982-24.942-52.982-55.6V323.093A5.875,5.875,0,0,0,236.247,317H87.586l2-257H348V245.478l-9.671-2.528a6.611,6.611,0,0,0-8.287,6.592l.736,23.624-23.145,4.5a6.6,6.6,0,0,0-4.6,9.524l10.882,20.949-18.894,14.15a6.6,6.6,0,0,0,0,10.56l18.9,14.194-10.888,20.959a6.6,6.6,0,0,0,4.6,9.519l23.148,4.506-.065.112A51.217,51.217,0,0,1,294.982,396.684Zm79.768,99.385-10.122-20.752a12.076,12.076,0,0,0-14.507-6.166l-23.134,7.458,28.345-68.818,5.825-1.526,9.6,21.609a6.6,6.6,0,0,0,10.312,2.348l2.289-1.948,9.564,23.373ZM471.1,474.83l-23.111-7.485a12.078,12.078,0,0,0-14.506,6.166l-10.16,20.747L392.976,420.09l6.08-5.174,17.985,15.3a6.632,6.632,0,0,0,4.292,1.574,6.535,6.535,0,0,0,1.449-.162,6.636,6.636,0,0,0,4.572-3.757l9.6-21.61,6.658,1.744Zm2.232-134.63a6.579,6.579,0,0,0-1.894,8.322l9.664,18.605-20.561,4a6.574,6.574,0,0,0-5.344,6.688l.656,20.993-20.3-5.316a6.578,6.578,0,0,0-7.7,3.706l-8.53,19.2L403.333,402.8a6.575,6.575,0,0,0-8.556,0l-15.985,13.6-8.534-19.209a6.58,6.58,0,0,0-7.7-3.7l-20.3,5.316.656-20.992a6.574,6.574,0,0,0-5.337-6.688l-20.568-4,9.664-18.605a6.582,6.582,0,0,0-1.893-8.322l-16.8-12.619L324.772,315a6.581,6.581,0,0,0,1.9-8.328l-9.664-18.6,20.563-4a6.574,6.574,0,0,0,5.342-6.687l-.656-20.993,20.3,5.316A6.586,6.586,0,0,0,370.261,258l8.531-19.2,15.982,13.6a6.574,6.574,0,0,0,8.56,0l15.986-13.6,8.53,19.2a6.578,6.578,0,0,0,7.706,3.708l20.3-5.316L455.2,277.38a6.573,6.573,0,0,0,5.338,6.688l20.568,4-9.667,18.608a6.578,6.578,0,0,0,1.9,8.324l16.793,12.578Z"></path><path fill="url(#b)" d="M399.056,263.7a63.9,63.9,0,1,0,63.9,63.9A63.977,63.977,0,0,0,399.056,263.7Zm0,115.808a51.9,51.9,0,1,1,51.9-51.9A51.964,51.964,0,0,1,399.056,379.5Z"></path><path fill="url(#c)" d="M397.5,303.8a5.831,5.831,0,0,0,3.05-.01,9.4,9.4,0,0,1,7.905,9.265,6,6,0,0,0,12,0A21.421,21.421,0,0,0,405,292.519V288a6,6,0,0,0-12,0v4.548a21.389,21.389,0,0,0,6.056,41.9,9.391,9.391,0,0,1,1.261,18.7,5.891,5.891,0,0,0-2.593-.011,9.4,9.4,0,0,1-8.064-9.29,6,6,0,0,0-12,0A21.424,21.424,0,0,0,393,364.358V369a6,6,0,0,0,12,0v-4.613a21.387,21.387,0,0,0-5.944-41.934A9.39,9.39,0,0,1,397.5,303.8Z"></path><path fill="url(#d)" d="M127.383,134H208.12a6,6,0,0,0,0-12H127.383a6,6,0,1,0,0,12Z"></path><path fill="url(#e)" d="M127.383 194H291.459a6 6 0 0 0 0-12H127.383a6 6 0 1 0 0 12zM297.459 254a6 6 0 0 0-6-6H127.383a6 6 0 1 0 0 12H291.459A6 6 0 0 0 297.459 254z"></path></svg>