<svg width="26" height="26" viewBox="0 0 26 26" fill="none" xmlns="http://www.w3.org/2000/svg">
<path d="M10.75 11.4H11.5C11.6989 11.4 11.8897 11.3157 12.0303 11.1657C12.171 11.0157 12.25 10.8122 12.25 10.6C12.25 10.3878 12.171 10.1843 12.0303 10.0343C11.8897 9.88429 11.6989 9.8 11.5 9.8H10.75C10.5511 9.8 10.3603 9.88429 10.2197 10.0343C10.079 10.1843 10 10.3878 10 10.6C10 10.8122 10.079 11.0157 10.2197 11.1657C10.3603 11.3157 10.5511 11.4 10.75 11.4ZM10.75 13C10.5511 13 10.3603 13.0843 10.2197 13.2343C10.079 13.3843 10 13.5878 10 13.8C10 14.0122 10.079 14.2157 10.2197 14.3657C10.3603 14.5157 10.5511 14.6 10.75 14.6H15.25C15.4489 14.6 15.6397 14.5157 15.7803 14.3657C15.921 14.2157 16 14.0122 16 13.8C16 13.5878 15.921 13.3843 15.7803 13.2343C15.6397 13.0843 15.4489 13 15.25 13H10.75ZM19 10.552C18.9922 10.4785 18.9771 10.4061 18.955 10.336V10.264C18.9189 10.1817 18.8708 10.1061 18.8125 10.04L14.3125 5.24C14.2505 5.17777 14.1796 5.12646 14.1025 5.088C14.0801 5.08461 14.0574 5.08461 14.035 5.088C13.9588 5.04139 13.8747 5.01148 13.7875 5H9.25C8.65326 5 8.08097 5.25286 7.65901 5.70294C7.23705 6.15303 7 6.76348 7 7.4V18.6C7 19.2365 7.23705 19.847 7.65901 20.2971C8.08097 20.7471 8.65326 21 9.25 21H16.75C17.3467 21 17.919 20.7471 18.341 20.2971C18.7629 19.847 19 19.2365 19 18.6V10.6C19 10.6 19 10.6 19 10.552ZM14.5 7.728L16.4425 9.8H15.25C15.0511 9.8 14.8603 9.71571 14.7197 9.56569C14.579 9.41566 14.5 9.21217 14.5 9V7.728ZM17.5 18.6C17.5 18.8122 17.421 19.0157 17.2803 19.1657C17.1397 19.3157 16.9489 19.4 16.75 19.4H9.25C9.05109 19.4 8.86032 19.3157 8.71967 19.1657C8.57902 19.0157 8.5 18.8122 8.5 18.6V7.4C8.5 7.18783 8.57902 6.98434 8.71967 6.83431C8.86032 6.68429 9.05109 6.6 9.25 6.6H13V9C13 9.63652 13.2371 10.247 13.659 10.6971C14.081 11.1471 14.6533 11.4 15.25 11.4H17.5V18.6ZM15.25 16.2H10.75C10.5511 16.2 10.3603 16.2843 10.2197 16.4343C10.079 16.5843 10 16.7878 10 17C10 17.2122 10.079 17.4157 10.2197 17.5657C10.3603 17.7157 10.5511 17.8 10.75 17.8H15.25C15.4489 17.8 15.6397 17.7157 15.7803 17.5657C15.921 17.4157 16 17.2122 16 17C16 16.7878 15.921 16.5843 15.7803 16.4343C15.6397 16.2843 15.4489 16.2 15.25 16.2Z" fill="#8E56C6"/>
<path d="M26 13C26 20.1797 20.1797 26 13 26C5.8203 26 0 20.1797 0 13C0 5.8203 5.8203 0 13 0C20.1797 0 26 5.8203 26 13Z" fill="#8E56C6" fill-opacity="0.04"/>
<path d="M25.75 13C25.75 20.0416 20.0416 25.75 13 25.75C5.95837 25.75 0.25 20.0416 0.25 13C0.25 5.95837 5.95837 0.25 13 0.25C20.0416 0.25 25.75 5.95837 25.75 13Z" stroke="#9A31EC" stroke-opacity="0.59" stroke-width="0.5"/>
</svg>
