<svg width="20" height="20" viewBox="0 0 20 20" fill="none" xmlns="http://www.w3.org/2000/svg">
<path fill-rule="evenodd" clip-rule="evenodd" d="M2.5 8.74991C2.5 7.59932 3.43275 6.66656 4.58334 6.66656H11.25C12.4006 6.66656 13.3333 7.59932 13.3333 8.74991V15.4166C13.3333 16.5672 12.4006 17.4999 11.25 17.4999H4.58334C3.43275 17.4999 2.5 16.5672 2.5 15.4166V8.74991ZM4.58334 7.49991C3.89297 7.49991 3.33334 8.05953 3.33334 8.74991V15.4166C3.33334 16.1069 3.89297 16.6666 4.58334 16.6666H11.25C11.9403 16.6666 12.5 16.1069 12.5 15.4166V8.74991C12.5 8.05953 11.9403 7.49991 11.25 7.49991H4.58334Z" fill="#191919"/>
<path fill-rule="evenodd" clip-rule="evenodd" d="M6.66675 4.58334C6.66675 3.43275 7.59947 2.5 8.75006 2.5H15.4167C16.5673 2.5 17.5001 3.43275 17.5001 4.58334V11.25C17.5001 12.4006 16.5673 13.3333 15.4167 13.3333H15.1603C14.9302 13.3333 14.7437 13.1468 14.7437 12.9167C14.7437 12.6866 14.9302 12.5 15.1603 12.5H15.4167C16.1071 12.5 16.6667 11.9403 16.6667 11.25V4.58334C16.6667 3.89297 16.1071 3.33334 15.4167 3.33334H8.75006C8.05972 3.33334 7.50006 3.89297 7.50006 4.58334V4.83975C7.50006 5.06987 7.31353 5.25641 7.0834 5.25641C6.85328 5.25641 6.66675 5.06987 6.66675 4.83975V4.58334Z" fill="#191919"/>
<path d="M5 13L6.28571 15L11 9" stroke="black"/>
</svg>
