<svg width="38" height="38" viewBox="0 0 38 38" fill="none" xmlns="http://www.w3.org/2000/svg">
<path d="M30.4 21.4135C30.4 19.1814 38 19.0205 38 21.4135C38 23.8065 38 38 38 38H30.4C30.4 38 30.4 23.6457 30.4 21.4135Z" fill="#D9D9D9"/>
<path d="M10.26 3.59842C10.26 -1.03124 17.48 -1.36482 17.48 3.59842C17.48 8.56166 17.48 38 17.48 38H10.26C10.26 38 10.26 8.22808 10.26 3.59842Z" fill="#67E33C"/>
<path d="M2.03983e-08 14.3489C6.62948e-08 11.166 7.6 10.9367 7.6 14.3489C7.6 17.7611 7.6 38 7.6 38H2.03983e-08C2.03983e-08 38 -2.54981e-08 17.5318 2.03983e-08 14.3489Z" fill="#D9D9D9"/>
<path d="M20.52 14.3489C20.52 11.166 27.74 10.9367 27.74 14.3489C27.74 17.7611 27.74 38 27.74 38H20.52C20.52 38 20.52 17.5318 20.52 14.3489Z" fill="#D9D9D9"/>
</svg>
