<svg width="20" height="20" viewBox="0 0 20 20" fill="none" xmlns="http://www.w3.org/2000/svg">
<path d="M16.6937 16.6624H3.30615C2.60192 16.6616 1.92678 16.3815 1.42881 15.8835C0.930849 15.3855 0.650729 14.7104 0.649902 14.0062V5.99365C0.650729 5.28942 0.930849 4.61428 1.42881 4.11631C1.92678 3.61835 2.60192 3.33823 3.30615 3.3374H16.6937C17.3979 3.33823 18.073 3.61835 18.571 4.11631C19.069 4.61428 19.3491 5.28942 19.3499 5.99365V14.0062C19.3491 14.7104 19.069 15.3855 18.571 15.8835C18.073 16.3815 17.3979 16.6616 16.6937 16.6624ZM3.30615 4.2749C2.85031 4.2749 2.41314 4.45598 2.09081 4.77831C1.76848 5.10064 1.5874 5.53781 1.5874 5.99365V14.0062C1.5874 14.462 1.76848 14.8992 2.09081 15.2215C2.41314 15.5438 2.85031 15.7249 3.30615 15.7249H16.6937C17.1495 15.7249 17.5867 15.5438 17.909 15.2215C18.2313 14.8992 18.4124 14.462 18.4124 14.0062V5.99365C18.4124 5.53781 18.2313 5.10064 17.909 4.77831C17.5867 4.45598 17.1495 4.2749 16.6937 4.2749H3.30615Z" fill="#0C9900"/>
<path d="M9.99986 11.9002C9.4216 11.9011 8.8588 11.7135 8.39673 11.3658L1.09986 5.84706C1.0483 5.81088 1.00457 5.76468 0.971267 5.71122C0.937965 5.65775 0.915779 5.59813 0.906035 5.5359C0.89629 5.47367 0.899186 5.41012 0.91455 5.34904C0.929915 5.28795 0.957432 5.23059 0.995458 5.18038C1.03348 5.13017 1.08124 5.08814 1.13587 5.05679C1.19051 5.02545 1.2509 5.00544 1.31344 4.99795C1.37598 4.99047 1.43938 4.99566 1.49987 5.01323C1.56036 5.03079 1.61668 5.06037 1.66548 5.10019L8.96236 10.6252C9.26201 10.8489 9.62593 10.9697 9.99986 10.9697C10.3738 10.9697 10.7377 10.8489 11.0374 10.6252L18.3342 5.10019C18.383 5.06037 18.4394 5.03079 18.4998 5.01323C18.5603 4.99566 18.6237 4.99047 18.6863 4.99795C18.7488 5.00544 18.8092 5.02545 18.8638 5.05679C18.9185 5.08814 18.9662 5.13017 19.0043 5.18038C19.0423 5.23059 19.0698 5.28795 19.0852 5.34904C19.1005 5.41012 19.1034 5.47367 19.0937 5.5359C19.0839 5.59813 19.0618 5.65775 19.0285 5.71122C18.9951 5.76468 18.9514 5.81088 18.8999 5.84706L11.603 11.3658C11.1409 11.7135 10.5781 11.9011 9.99986 11.9002Z" fill="#0C9900"/>
<path d="M1.30294 15.3561C1.20786 15.3563 1.115 15.3275 1.03666 15.2736C0.95832 15.2198 0.898212 15.1433 0.864311 15.0545C0.83041 14.9657 0.824318 14.8687 0.846844 14.7763C0.86937 14.6839 0.919449 14.6006 0.990435 14.5374L6.74044 9.40925C6.83326 9.32637 6.95521 9.28376 7.07945 9.29079C7.20369 9.29782 7.32006 9.35392 7.40294 9.44675C7.48582 9.53957 7.52843 9.66152 7.52139 9.78576C7.51436 9.91001 7.45826 10.0264 7.36544 10.1092L1.61544 15.2374C1.53004 15.3151 1.41837 15.3575 1.30294 15.3561ZM18.6967 15.3561C18.5812 15.3575 18.4696 15.3151 18.3842 15.2374L12.6342 10.1092C12.5414 10.0264 12.4853 9.91001 12.4782 9.78576C12.4712 9.66152 12.5138 9.53957 12.5967 9.44675C12.6796 9.35392 12.7959 9.29782 12.9202 9.29079C13.0444 9.28376 13.1664 9.32637 13.2592 9.40925L19.0061 14.5374C19.077 14.6006 19.1271 14.6839 19.1497 14.7763C19.1722 14.8687 19.1661 14.9657 19.1322 15.0545C19.0983 15.1433 19.0382 15.2198 18.9598 15.2736C18.8815 15.3275 18.7886 15.3563 18.6936 15.3561H18.6967Z" fill="#0C9900"/>
</svg>
