<svg width="26" height="26" viewBox="0 0 26 26" fill="none" xmlns="http://www.w3.org/2000/svg">
<path d="M8.57896 5.72C8.54482 5.72055 8.51111 5.72781 8.47977 5.74138C8.44844 5.75495 8.42008 5.77456 8.39632 5.79909C8.37256 5.82362 8.35387 5.85259 8.34131 5.88435C8.32875 5.9161 8.32257 5.95002 8.32312 5.98416V6.76H5.98C5.91104 6.76 5.84491 6.7874 5.79615 6.83616C5.74739 6.88492 5.72 6.95105 5.72 7.02V9.36H6.24V7.28H8.32312V7.84784C8.02152 7.956 7.80312 8.24356 7.80312 8.58C7.80312 9.00744 8.15516 9.36 8.58312 9.36C9.01056 9.36 9.36312 9.00744 9.36312 8.58C9.36312 8.24356 9.1442 7.956 8.84312 7.84784V7.28H16.6431V7.84784C16.3415 7.956 16.1231 8.24356 16.1231 8.58C16.1231 9.00744 16.4752 9.36 16.9031 9.36C17.3306 9.36 17.6831 9.00744 17.6831 8.58C17.6831 8.24356 17.4642 7.956 17.1631 7.84784V7.28H19.2462V9.36H19.7662V7.02C19.7662 6.95105 19.7388 6.88492 19.6901 6.83616C19.6413 6.7874 19.5752 6.76 19.5062 6.76H17.1631V5.98416C17.1637 5.94932 17.1572 5.91472 17.1442 5.88241C17.1311 5.85011 17.1116 5.82077 17.087 5.79612C17.0624 5.77148 17.033 5.75204 17.0007 5.73897C16.9684 5.72589 16.9338 5.71944 16.899 5.72C16.8648 5.72055 16.8311 5.72781 16.7998 5.74138C16.7684 5.75495 16.7401 5.77456 16.7163 5.79909C16.6926 5.82362 16.6739 5.85259 16.6613 5.88435C16.6488 5.9161 16.6426 5.95002 16.6431 5.98416V6.76H8.84312V5.98416C8.84368 5.94932 8.83723 5.91472 8.82416 5.88241C8.81108 5.85011 8.79165 5.82077 8.767 5.79612C8.74236 5.77148 8.71302 5.75204 8.68071 5.73897C8.64841 5.72589 8.61381 5.71944 8.57896 5.72ZM8.55452 8.3252C8.57319 8.32723 8.59202 8.32723 8.61068 8.3252C8.6744 8.33058 8.73374 8.3598 8.77684 8.40705C8.81994 8.45429 8.84361 8.51606 8.84312 8.58C8.84312 8.72664 8.72976 8.84 8.58312 8.84C8.54884 8.84049 8.51481 8.8341 8.48305 8.82121C8.45128 8.80832 8.42242 8.78919 8.39818 8.76494C8.37394 8.7407 8.35481 8.71185 8.34191 8.68008C8.32902 8.64831 8.32263 8.61428 8.32312 8.58C8.32312 8.44376 8.42296 8.33924 8.55452 8.3252ZM16.8745 8.3252C16.8932 8.32723 16.912 8.32723 16.9307 8.3252C16.9944 8.33058 17.0537 8.3598 17.0968 8.40705C17.1399 8.45429 17.1636 8.51606 17.1631 8.58C17.1631 8.72664 17.0498 8.84 16.9031 8.84C16.8688 8.84049 16.8348 8.8341 16.803 8.82121C16.7713 8.80832 16.7424 8.78919 16.7182 8.76494C16.6939 8.7407 16.6748 8.71185 16.6619 8.68008C16.649 8.64831 16.6426 8.61428 16.6431 8.58C16.6431 8.44376 16.743 8.33924 16.8745 8.3252ZM5.98312 9.88C5.91416 9.88 5.84803 9.9074 5.79927 9.95616C5.75051 10.0049 5.72312 10.071 5.72312 10.14V19.5C5.72312 19.569 5.75051 19.6351 5.79927 19.6839C5.84803 19.7326 5.91416 19.76 5.98312 19.76H19.5031C19.5721 19.76 19.6382 19.7326 19.687 19.6839C19.7357 19.6351 19.7631 19.569 19.7631 19.5V10.14C19.7631 10.071 19.7357 10.0049 19.687 9.95616C19.6382 9.9074 19.5721 9.88 19.5031 9.88H5.98312ZM6.24312 10.4H19.2431V19.24H6.24312V10.4ZM11.1831 10.92C11.1142 10.92 11.048 10.9474 10.9993 10.9962C10.9505 11.0449 10.9231 11.111 10.9231 11.18V12.22C10.9231 12.289 10.9505 12.3551 10.9993 12.4039C11.048 12.4526 11.1142 12.48 11.1831 12.48H12.2231C12.2921 12.48 12.3582 12.4526 12.407 12.4039C12.4557 12.3551 12.4831 12.289 12.4831 12.22V11.18C12.4831 11.111 12.4557 11.0449 12.407 10.9962C12.3582 10.9474 12.2921 10.92 12.2231 10.92H11.1831ZM13.2631 10.92C13.1942 10.92 13.128 10.9474 13.0793 10.9962C13.0305 11.0449 13.0031 11.111 13.0031 11.18V12.22C13.0031 12.289 13.0305 12.3551 13.0793 12.4039C13.128 12.4526 13.1942 12.48 13.2631 12.48H14.3031C14.3721 12.48 14.4382 12.4526 14.487 12.4039C14.5357 12.3551 14.5631 12.289 14.5631 12.22V11.18C14.5631 11.111 14.5357 11.0449 14.487 10.9962C14.4382 10.9474 14.3721 10.92 14.3031 10.92H13.2631ZM15.3431 10.92C15.2742 10.92 15.208 10.9474 15.1593 10.9962C15.1105 11.0449 15.0831 11.111 15.0831 11.18V12.22C15.0831 12.289 15.1105 12.3551 15.1593 12.4039C15.208 12.4526 15.2742 12.48 15.3431 12.48H16.3831C16.4521 12.48 16.5182 12.4526 16.567 12.4039C16.6157 12.3551 16.6431 12.289 16.6431 12.22V11.18C16.6431 11.111 16.6157 11.0449 16.567 10.9962C16.5182 10.9474 16.4521 10.92 16.3831 10.92H15.3431ZM17.4231 10.92C17.3542 10.92 17.288 10.9474 17.2393 10.9962C17.1905 11.0449 17.1631 11.111 17.1631 11.18V12.22C17.1631 12.289 17.1905 12.3551 17.2393 12.4039C17.288 12.4526 17.3542 12.48 17.4231 12.48H18.4631C18.5321 12.48 18.5982 12.4526 18.647 12.4039C18.6957 12.3551 18.7231 12.289 18.7231 12.22V11.18C18.7231 11.111 18.6957 11.0449 18.647 10.9962C18.5982 10.9474 18.5321 10.92 18.4631 10.92H17.4231ZM10.1358 11.2757C10.0685 11.2772 10.0044 11.3048 9.95696 11.3526L9.45048 11.8544L9.28772 11.6938C9.26359 11.6691 9.23479 11.6495 9.203 11.6361C9.17121 11.6227 9.13707 11.6157 9.10257 11.6156C9.06807 11.6155 9.03389 11.6223 9.00203 11.6356C8.97018 11.6488 8.94128 11.6683 8.91702 11.6928C8.89276 11.7174 8.87363 11.7465 8.86073 11.7785C8.84784 11.8105 8.84145 11.8447 8.84193 11.8792C8.84241 11.9137 8.84975 11.9478 8.86352 11.9794C8.8773 12.0111 8.89723 12.0396 8.92216 12.0635L9.26744 12.4046C9.31611 12.4527 9.38179 12.4797 9.45022 12.4797C9.51866 12.4797 9.58433 12.4527 9.633 12.4046L10.323 11.7224C10.3608 11.686 10.3867 11.6391 10.3973 11.5877C10.4079 11.5364 10.4028 11.483 10.3825 11.4347C10.3623 11.3863 10.3279 11.3452 10.2839 11.3167C10.2399 11.2883 10.1882 11.2738 10.1358 11.2752V11.2757ZM7.28312 11.44V11.96H7.80312V11.44H7.28312ZM11.4431 11.44H11.9631V11.96H11.4431V11.44ZM13.5231 11.44H14.0431V11.96H13.5231V11.44ZM15.6031 11.44H16.1231V11.96H15.6031V11.44ZM17.6831 11.44H18.2031V11.96H17.6831V11.44ZM7.02312 13C6.95417 13 6.88803 13.0274 6.83927 13.0762C6.79051 13.1249 6.76312 13.191 6.76312 13.26V14.3C6.76312 14.369 6.79051 14.4351 6.83927 14.4839C6.88803 14.5326 6.95417 14.56 7.02312 14.56H8.06312C8.13208 14.56 8.19821 14.5326 8.24697 14.4839C8.29573 14.4351 8.32312 14.369 8.32312 14.3V13.26C8.32312 13.191 8.29573 13.1249 8.24697 13.0762C8.19821 13.0274 8.13208 13 8.06312 13H7.02312ZM9.10312 13C9.03416 13 8.96803 13.0274 8.91927 13.0762C8.87051 13.1249 8.84312 13.191 8.84312 13.26V14.3C8.84312 14.369 8.87051 14.4351 8.91927 14.4839C8.96803 14.5326 9.03416 14.56 9.10312 14.56H10.1431C10.2121 14.56 10.2782 14.5326 10.327 14.4839C10.3757 14.4351 10.4031 14.369 10.4031 14.3V13.26C10.4031 13.191 10.3757 13.1249 10.327 13.0762C10.2782 13.0274 10.2121 13 10.1431 13H9.10312ZM11.1831 13C11.1142 13 11.048 13.0274 10.9993 13.0762C10.9505 13.1249 10.9231 13.191 10.9231 13.26V14.3C10.9231 14.369 10.9505 14.4351 10.9993 14.4839C11.048 14.5326 11.1142 14.56 11.1831 14.56H12.2231C12.2921 14.56 12.3582 14.5326 12.407 14.4839C12.4557 14.4351 12.4831 14.369 12.4831 14.3V13.26C12.4831 13.191 12.4557 13.1249 12.407 13.0762C12.3582 13.0274 12.2921 13 12.2231 13H11.1831ZM13.2631 13C13.1942 13 13.128 13.0274 13.0793 13.0762C13.0305 13.1249 13.0031 13.191 13.0031 13.26V14.3C13.0031 14.369 13.0305 14.4351 13.0793 14.4839C13.128 14.5326 13.1942 14.56 13.2631 14.56H14.3031C14.3721 14.56 14.4382 14.5326 14.487 14.4839C14.5357 14.4351 14.5631 14.369 14.5631 14.3V13.26C14.5631 13.191 14.5357 13.1249 14.487 13.0762C14.4382 13.0274 14.3721 13 14.3031 13H13.2631ZM17.4231 13C17.3542 13 17.288 13.0274 17.2393 13.0762C17.1905 13.1249 17.1631 13.191 17.1631 13.26V14.3C17.1631 14.369 17.1905 14.4351 17.2393 14.4839C17.288 14.5326 17.3542 14.56 17.4231 14.56H18.4631C18.5321 14.56 18.5982 14.5326 18.647 14.4839C18.6957 14.4351 18.7231 14.369 18.7231 14.3V13.26C18.7231 13.191 18.6957 13.1249 18.647 13.0762C18.5982 13.0274 18.5321 13 18.4631 13H17.4231ZM16.3769 13.3557C16.3095 13.3572 16.2454 13.3848 16.198 13.4326L15.6905 13.9344L15.5277 13.7738C15.5036 13.7491 15.4748 13.7295 15.443 13.7161C15.4112 13.7027 15.3771 13.6957 15.3426 13.6956C15.3081 13.6955 15.2739 13.7023 15.242 13.7156C15.2102 13.7288 15.1813 13.7483 15.157 13.7728C15.1328 13.7974 15.1136 13.8265 15.1007 13.8585C15.0878 13.8905 15.0815 13.9247 15.0819 13.9592C15.0824 13.9937 15.0897 14.0278 15.1035 14.0594C15.1173 14.0911 15.1372 14.1196 15.1622 14.1435L15.5074 14.4846C15.5561 14.5327 15.6218 14.5597 15.6902 14.5597C15.7587 14.5597 15.8243 14.5327 15.873 14.4846L16.5641 13.8024C16.6018 13.766 16.6277 13.7191 16.6384 13.6677C16.649 13.6164 16.6438 13.563 16.6236 13.5147C16.6033 13.4663 16.5689 13.4252 16.5249 13.3967C16.4809 13.3683 16.4293 13.3543 16.3769 13.3557ZM7.28312 13.52H7.80312V14.04H7.28312V13.52ZM9.36312 13.52H9.88312V14.04H9.36312V13.52ZM11.4431 13.52H11.9631V14.04H11.4431V13.52ZM13.5231 13.52H14.0431V14.04H13.5231V13.52ZM17.6831 13.52H18.2031V14.04H17.6831V13.52ZM7.02312 15.08C6.95417 15.08 6.88803 15.1074 6.83927 15.1562C6.79051 15.2049 6.76312 15.271 6.76312 15.34V16.38C6.76312 16.449 6.79051 16.5151 6.83927 16.5639C6.88803 16.6126 6.95417 16.64 7.02312 16.64H8.06312C8.13208 16.64 8.19821 16.6126 8.24697 16.5639C8.29573 16.5151 8.32312 16.449 8.32312 16.38V15.34C8.32312 15.271 8.29573 15.2049 8.24697 15.1562C8.19821 15.1074 8.13208 15.08 8.06312 15.08H7.02312ZM9.10312 15.08C9.03416 15.08 8.96803 15.1074 8.91927 15.1562C8.87051 15.2049 8.84312 15.271 8.84312 15.34V16.38C8.84312 16.449 8.87051 16.5151 8.91927 16.5639C8.96803 16.6126 9.03416 16.64 9.10312 16.64H10.1431C10.2121 16.64 10.2782 16.6126 10.327 16.5639C10.3757 16.5151 10.4031 16.449 10.4031 16.38V15.34C10.4031 15.271 10.3757 15.2049 10.327 15.1562C10.2782 15.1074 10.2121 15.08 10.1431 15.08H9.10312ZM13.2631 15.08C13.1942 15.08 13.128 15.1074 13.0793 15.1562C13.0305 15.2049 13.0031 15.271 13.0031 15.34V16.38C13.0031 16.449 13.0305 16.5151 13.0793 16.5639C13.128 16.6126 13.1942 16.64 13.2631 16.64H14.3031C14.3721 16.64 14.4382 16.6126 14.487 16.5639C14.5357 16.5151 14.5631 16.449 14.5631 16.38V15.34C14.5631 15.271 14.5357 15.2049 14.487 15.1562C14.4382 15.1074 14.3721 15.08 14.3031 15.08H13.2631ZM15.3431 15.08C15.2742 15.08 15.208 15.1074 15.1593 15.1562C15.1105 15.2049 15.0831 15.271 15.0831 15.34V16.38C15.0831 16.449 15.1105 16.5151 15.1593 16.5639C15.208 16.6126 15.2742 16.64 15.3431 16.64H16.3831C16.4521 16.64 16.5182 16.6126 16.567 16.5639C16.6157 16.5151 16.6431 16.449 16.6431 16.38V15.34C16.6431 15.271 16.6157 15.2049 16.567 15.1562C16.5182 15.1074 16.4521 15.08 16.3831 15.08H15.3431ZM17.4231 15.08C17.3542 15.08 17.288 15.1074 17.2393 15.1562C17.1905 15.2049 17.1631 15.271 17.1631 15.34V16.38C17.1631 16.449 17.1905 16.5151 17.2393 16.5639C17.288 16.6126 17.3542 16.64 17.4231 16.64H18.4631C18.5321 16.64 18.5982 16.6126 18.647 16.5639C18.6957 16.5151 18.7231 16.449 18.7231 16.38V15.34C18.7231 15.271 18.6957 15.2049 18.647 15.1562C18.5982 15.1074 18.5321 15.08 18.4631 15.08H17.4231ZM12.2169 15.4346C12.1492 15.4359 12.0846 15.4635 12.037 15.5116L11.5305 16.0144L11.3677 15.8538C11.3436 15.8291 11.3148 15.8095 11.283 15.7961C11.2512 15.7827 11.2171 15.7757 11.1826 15.7756C11.1481 15.7755 11.1139 15.7823 11.082 15.7956C11.0502 15.8088 11.0213 15.8283 10.997 15.8528C10.9728 15.8774 10.9536 15.9065 10.9407 15.9385C10.9278 15.9705 10.9215 16.0047 10.9219 16.0392C10.9224 16.0737 10.9297 16.1078 10.9435 16.1394C10.9573 16.1711 10.9772 16.1996 11.0022 16.2235L11.3474 16.5646C11.3961 16.6127 11.4618 16.6397 11.5302 16.6397C11.5987 16.6397 11.6643 16.6127 11.713 16.5646L12.403 15.8813C12.4407 15.845 12.4666 15.7982 12.4772 15.7469C12.4879 15.6957 12.4828 15.6425 12.4627 15.5941C12.4426 15.5458 12.4084 15.5047 12.3645 15.4762C12.3207 15.4476 12.2692 15.4335 12.2169 15.4346ZM7.28312 15.6H7.80312V16.12H7.28312V15.6ZM9.36312 15.6H9.88312V16.12H9.36312V15.6ZM13.5231 15.6H14.0431V16.12H13.5231V15.6ZM15.6031 15.6H16.1231V16.12H15.6031V15.6ZM17.6831 15.6H18.2031V16.12H17.6831V15.6ZM7.02312 17.16C6.95417 17.16 6.88803 17.1874 6.83927 17.2362C6.79051 17.2849 6.76312 17.351 6.76312 17.42V18.46C6.76312 18.529 6.79051 18.5951 6.83927 18.6439C6.88803 18.6926 6.95417 18.72 7.02312 18.72H8.06312C8.13208 18.72 8.19821 18.6926 8.24697 18.6439C8.29573 18.5951 8.32312 18.529 8.32312 18.46V17.42C8.32312 17.351 8.29573 17.2849 8.24697 17.2362C8.19821 17.1874 8.13208 17.16 8.06312 17.16H7.02312ZM9.10312 17.16C9.03416 17.16 8.96803 17.1874 8.91927 17.2362C8.87051 17.2849 8.84312 17.351 8.84312 17.42V18.46C8.84312 18.529 8.87051 18.5951 8.91927 18.6439C8.96803 18.6926 9.03416 18.72 9.10312 18.72H10.1431C10.2121 18.72 10.2782 18.6926 10.327 18.6439C10.3757 18.5951 10.4031 18.529 10.4031 18.46V17.42C10.4031 17.351 10.3757 17.2849 10.327 17.2362C10.2782 17.1874 10.2121 17.16 10.1431 17.16H9.10312ZM7.28312 17.68H7.80312V18.2H7.28312V17.68ZM9.36312 17.68H9.88312V18.2H9.36312V17.68ZM11.4431 17.68V18.2H11.9631V17.68H11.4431ZM13.5231 17.68V18.2H14.0431V17.68H13.5231ZM15.6031 17.68V18.2H16.1231V17.68H15.6031ZM17.6831 17.68V18.2H18.2031V17.68H17.6831Z" fill="url(#paint0_linear_7_42)"/>
<circle cx="13" cy="13" r="12.75" fill="#FF9314" fill-opacity="0.07" stroke="#EC9B31" stroke-width="0.5"/>
<defs>
<linearGradient id="paint0_linear_7_42" x1="5.72" y1="12.74" x2="18.2" y2="12.74" gradientUnits="userSpaceOnUse">
<stop stop-color="#925300"/>
<stop offset="1" stop-color="#EC9B31"/>
</linearGradient>
</defs>
</svg>
