<svg xmlns="http://www.w3.org/2000/svg" enable-background="new 0 0 512 512" viewBox="0 0 512 512" id="percentage"><linearGradient id="a" x1="64.442" x2="447.558" y1="256" y2="256" gradientUnits="userSpaceOnUse"><stop offset="0" stop-color="#10ccd8"></stop><stop offset="1" stop-color="#ee10fb"></stop></linearGradient><path fill="url(#a)" d="M88.829,447.002c4.588,1.144,9.201,0.991,13.868,0.991c6.342,0,12.683,0,19.025,0c51.291,0,102.582,0,153.873,0
	c44.088,0,88.175,0,132.263,0c2.365,0,4.73,0,7.095,0c18.04-0.442,32.015-14.581,32.343-32.6c0.08-4.416,0-8.841,0-13.258
	c0-22.557,0-45.114,0-67.671c0-36.628,0-73.257,0-109.885c0-7.562,0-15.124,0-22.686c0-7.952,0.945-16.735-0.752-24.581
	c-0.831-3.841-2.428-7.33-4.597-10.367c-2.673-3.847-6.164-6.814-10.153-8.906c-4.307-2.334-9.196-3.674-14.236-3.787
	c-1.508-0.034-3.02-0.009-4.529-0.003c-12.084-0.036-24.17,0.003-36.254,0.003c-11.805,0-23.611,0-35.416,0
	c-18.076-15.531-36.152-31.061-54.227-46.592c-3.458-2.971-6.916-5.942-10.374-8.913c1.571-2.99,2.563-6.341,2.836-9.878
	c0.052-0.343,0.077-0.704,0.064-1.09c0.014-0.385-0.012-0.745-0.064-1.087C278.63,74.26,268.772,64,255.876,64
	c-12.926,0-23.78,10.854-23.78,23.78c0,3.953,1.024,7.719,2.812,11.043c-21.505,18.476-43.009,36.953-64.514,55.429
	c-21.902,0-43.803,0-65.705,0c-2.328,0-4.643-0.032-6.935,0c-0.335,0-0.67,0-1.005,0c-2.632,0-5.235,0.216-7.763,0.678
	c-0.222,0.037-0.443,0.078-0.663,0.119c-0.021,0.004-0.041,0.008-0.062,0.012c-3.566,0.67-7.026,1.89-10.336,4.061
	c-0.276,0.175-0.55,0.356-0.821,0.542c-0.01,0.007-0.02,0.013-0.031,0.02c-0.007,0.005-0.014,0.011-0.021,0.016
	c-1.696,1.167-3.293,2.538-4.756,4.157c-6.297,6.973-7.84,15.379-7.84,24.344c0,0.034,0,0.068,0,0.102c0,9.733,0,19.466,0,29.199
	c0,2.359,0,4.717,0,7.076c0,6.387,0,12.774,0,19.161c0,51.963,0,103.927,0,155.89c0,5.046-0.034,10.094,0,15.141
	C64.557,429.683,74.015,443.309,88.829,447.002z M436.687,414.326c-0.062,12.552-8.797,22.742-21.734,23.059
	c-31.278,0-62.555,0-93.833,0c-54.383,0-108.765,0-163.148,0c-17.363,0-34.727,0-52.09,0c-2.993,0-5.993,0.062-8.986,0
	c-12.548-0.259-21.738-10.084-21.831-22.485c-0.311-41.406,0-82.826,0-124.234c0-20.261,0-40.522,0-60.783
	c10.565,0,21.13,0,31.696,0c29.621,0,59.242,0,88.863,0c35.841,0,71.681,0,107.522,0c30.992,0,61.984,0,92.976,0
	c13.465,0,27.078,0.547,40.565,0.164c0,18.928,0,37.856,0,56.784C436.687,329.327,436.898,371.83,436.687,414.326z M242.704,87.78
	c0-6.97,5.588-12.76,12.513-13.149c7.629-0.428,13.572,5.746,13.832,13.149c-0.253,7.187-5.789,13.172-13.172,13.172
	c-2.023,0-3.942-0.488-5.668-1.329c3.14-2.697,6.279-5.395,9.418-8.092c5.187-4.456-2.346-11.931-7.501-7.501
	c-2.945,2.53-5.889,5.06-8.834,7.59C242.912,90.401,242.704,89.112,242.704,87.78z M241.812,106.837
	c3.966,2.968,8.846,4.741,14.064,4.723c5.351-0.018,10.176-1.782,14.061-4.726c18.397,15.806,36.793,31.612,55.19,47.419
	c-36.747,0-73.494,0-110.241,0c-5.225,0-10.45,0-15.674,0c-4.196,0-8.391,0-12.587,0
	C205.021,138.448,223.416,122.643,241.812,106.837z M158.047,164.861c-4.05,3.48-8.1,6.96-12.151,10.44
	c-0.129,0.11-0.257,0.221-0.386,0.331c-3.097-2.149-6.851-3.418-11.014-3.418c-10.815,0-19.809,9.073-19.854,19.854
	c-0.045,10.782,9.108,19.854,19.854,19.854c10.607,0,18.558-8.237,19.716-18.32c0.109-0.467,0.163-0.975,0.138-1.534
	c0.025-0.557-0.029-1.064-0.138-1.53c-0.275-2.397-0.936-4.682-1.923-6.784c7.33-6.298,14.659-12.595,21.989-18.893
	c3.991,0,7.983,0,11.974,0c41.489,0,82.979,0,124.468,0c8.525,0,17.049,0,25.574,0c0.393,0,0.786,0,1.179,0
	c7.33,6.298,14.659,12.595,21.989,18.893c-0.987,2.101-1.648,4.385-1.923,6.78c-0.109,0.467-0.164,0.975-0.138,1.534
	c-0.025,0.557,0.029,1.064,0.138,1.53c1.156,10.085,9.106,18.324,19.716,18.324c10.815,0,19.809-9.073,19.854-19.854
	c0.045-10.781-9.108-19.854-19.854-19.854c-4.162,0-7.916,1.269-11.013,3.419c-4.179-3.591-8.358-7.181-12.537-10.772
	c14.681,0,29.361,0,44.042,0c2.26,0,4.519,0,6.779,0c3.084,0,6.567-0.252,10.01-0.229c5.896,0.317,11.568,1.52,15.748,5.085
	c0.074,0.066,0.151,0.128,0.223,0.195c0.051,0.045,0.1,0.094,0.15,0.139c1.174,1.108,2.203,2.363,3.071,3.725
	c2.906,4.749,2.959,10.075,2.959,15.634c0,7.44,0,14.881,0,22.321c0,2.045,0,4.09,0,6.135c0,0.469,0,0.938,0,1.408
	c-10.565,0-21.13,0-31.695,0c-29.621,0-59.242,0-88.863,0c-35.841,0-71.681,0-107.522,0c-30.992,0-61.984,0-92.976,0
	c-10.219,0-20.438,0-30.657,0c-3.113,0-6.578-0.346-9.909-0.337c0-1.516,0-3.033,0-4.549c0-3.849,0-7.699,0-11.548
	c0-4.027,0-8.054,0-12.082c0-4.747-0.339-9.546,1.416-14.011c0.108-0.262,0.212-0.526,0.331-0.781
	c0.048-0.105,0.095-0.21,0.145-0.314c1.427-2.926,3.577-5.347,6.187-7.154c3.488-2.28,7.696-3.261,12.115-3.639
	c2.058-0.02,4.118,0.002,6.175,0.002c3.547,0,7.094,0,10.641,0C127.4,164.861,142.724,164.861,158.047,164.861z M138.248,195.818
	c1.804-1.55,3.608-3.1,5.412-4.65c0.037,0.293,0.069,0.59,0.083,0.899c-0.532,11.858-18.492,11.999-18.492,0
	c0-6.971,6.068-9.842,11.254-8.698c-1.92,1.649-3.839,3.299-5.759,4.948C125.56,192.774,133.093,200.248,138.248,195.818z
	 M368.093,191.168c1.804,1.55,3.608,3.1,5.412,4.65c5.153,4.428,12.69-3.043,7.501-7.501c-1.918-1.648-3.836-3.296-5.754-4.944
	c5.186-1.144,11.249,1.721,11.249,8.694c0,11.992-17.959,11.876-18.492,0C368.023,191.758,368.056,191.462,368.093,191.168z
	 M194.531,207.428c5.646,1.894,13.068,0.824,18.879,0.824c11.922,0,23.844,0,35.766,0c20.763,0,41.525,0,62.288,0
	c0.218,0.011,0.442,0.013,0.677,0c0.436,0,0.844-0.044,1.224-0.126c8.438-1.046,15.322-7.72,14.923-16.693
	c-0.392-8.837-7.58-15.192-16.191-15.55c-5.825-0.242-11.711,0-17.54,0c-24.927,0-49.854,0-74.781,0c-6.617,0-13.286-0.242-19.899,0
	c-6.989,0.256-13.401,4.224-15.628,11.105C181.539,195.368,186.155,204.618,194.531,207.428z M195.005,188.912
	c2.668-3.888,11.001-2.42,14.991-2.42c21.577,0,43.154,0,64.732,0c10.258,0,20.515,0,30.773,0c2.118,0,4.309-0.162,6.422,0
	c7.189,0.551,7.729,10.719,0.22,11.152c-35.455,0-70.91,0-106.364,0c-1.891,0-3.827,0.12-5.715,0
	C195.706,197.366,192.15,193.073,195.005,188.912z M342.204,307.018c-4.087-8.336-14.076-11.019-18.55-18.778
	c-4.589-7.957-3.389-18.265-10.994-24.679c-8.036-6.777-18.36-2.887-27.509-5.73c-9.252-2.875-14.428-13.037-24.662-14.059
	c-10.278-1.026-16.487,7.489-25.103,11.126c-9.022,3.808-19.511-1.769-28.553,3.163c-8.824,4.813-9.532,15.105-13.797,23.14
	c-3.94,7.423-13.447,9.728-18.835,15.958c-7.302,8.443-3.848,18.212-1.284,27.775c1.295,4.829,0.896,8.686-0.771,13.38
	c-1.776,5.002-4.169,9.942-4.337,15.353c-0.328,10.585,8.291,15.817,15.462,21.814c7.69,6.431,6.979,15.87,11.387,24.235
	c4.864,9.23,14.231,10.14,23.641,10.455c5.055,0.169,9.126,0.636,13.387,3.564c4.212,2.895,7.827,6.716,12.385,9.108
	c10.864,5.7,19.376-0.839,28.392-6.602c4.914-3.142,9.331-3.498,15.061-3.223c5.456,0.261,11.129,0.639,16.243-1.649
	c10.354-4.632,10.279-16.22,15.546-24.723c5.265-8.501,17.175-9.994,21.372-19.831c0.016-0.037,0.026-0.073,0.04-0.109
	c0.196-0.348,0.363-0.732,0.494-1.158c1.509-4.909,0.895-9.823-0.395-14.712c-1.249-4.731-3.584-9.641-2.854-14.631
	C339.434,326.188,347.292,317.396,342.204,307.018z M313.805,376.624c-5.944,5.835-6.684,14.111-10.554,21.094
	c-4.408,7.954-15.313,4.076-22.752,4.627c-9.697,0.718-15.233,7.53-23.604,11.268c-7.914,3.533-14.434-5.481-20.407-9.416
	c-7.969-5.25-16.363-3.688-25.27-4.994c-9.49-1.392-9.226-12.007-11.935-19.33c-3.022-8.171-9.289-12.129-15.648-17.523
	c-2.765-2.346-5.38-4.802-5.219-8.681c0.207-4.995,3.201-9.958,4.676-14.647c3.05-9.697-0.925-17.094-2.586-26.5
	c-1.603-9.08,6.468-12.021,12.732-16.468c7.232-5.133,10.112-11.578,13.072-19.713c1.193-3.28,2.515-7.455,5.876-9.118
	c3.902-1.93,9.315-0.812,13.476-0.646c4.027,0.161,8.179,0.116,12.033-1.211c4.218-1.452,7.804-4.119,11.456-6.594
	c3.022-2.048,6.746-4.965,10.622-4.423c4.001,0.559,7.604,4.337,10.612,6.719c3.305,2.618,6.665,5.172,10.688,6.585
	c4.405,1.547,9.208,1.584,13.822,1.741c4.494,0.153,9.729-0.089,12.459,4.117c2.366,3.646,2.925,8.429,4.139,12.529
	c1.25,4.219,2.934,8.156,5.877,11.481c3.121,3.525,7.187,6.016,10.746,9.048c3.815,3.25,6.006,6.184,4.737,11.364
	c-1.294,5.283-4.057,10.098-5.115,15.454c-1.003,5.081-0.146,9.865,1.253,14.777c1.306,4.585,3.377,9.393,2.101,14.167
	C327.629,369.011,319.027,371.498,313.805,376.624z M277.997,336.422c-10.786,0-18.9,8.399-20.026,18.672
	c-0.102,0.454-0.154,0.945-0.131,1.484c-0.023,0.537,0.029,1.027,0.13,1.48c1.124,10.276,9.238,18.677,20.026,18.677
	c10.95,0,20.156-9.205,20.156-20.156C298.154,345.625,288.947,336.422,277.997,336.422z M268.449,356.579
	c0.522-12.262,19.097-12.363,19.097,0C287.546,368.94,268.971,368.848,268.449,356.579z M213.089,313.177
	c1.124,10.276,9.238,18.677,20.026,18.677c10.95,0,20.156-9.205,20.156-20.156c0-10.953-9.206-20.156-20.156-20.156
	c-10.786,0-18.9,8.399-20.026,18.672c-0.102,0.454-0.154,0.945-0.131,1.484C212.936,312.234,212.987,312.724,213.089,313.177z
	 M242.664,311.697c0,12.361-18.575,12.27-19.097,0C224.089,299.435,242.664,299.334,242.664,311.697z M283.789,314.325
	c-18.708,18.708-37.415,37.415-56.123,56.123c-4.836,4.836-12.335-2.668-7.501-7.501c2.693-2.693,5.385-5.385,8.077-8.077
	c18.708-18.708,37.415-37.415,56.123-56.123c4.836-4.836,12.335,2.668,7.501,7.501C289.174,308.94,286.482,311.632,283.789,314.325z
	"></path></svg>