<svg width="20" height="20" viewBox="0 0 20 20" fill="none" xmlns="http://www.w3.org/2000/svg">
<path d="M18.7437 18.2281H1.25625C0.565625 18.2281 0 17.6625 0 16.9688V6.06875C0 5.375 0.5625 4.8125 1.25625 4.8125H7.5875C7.75625 4.8125 7.89062 4.94688 7.89062 5.11563C7.89062 5.28438 7.75625 5.41875 7.5875 5.41875H1.25625C0.896875 5.41875 0.60625 5.70938 0.60625 6.06875V16.9688C0.60625 17.3281 0.9 17.6188 1.25625 17.6188H18.7406C19.1 17.6188 19.3906 17.325 19.3906 16.9688V6.06875C19.3906 5.70938 19.1 5.41875 18.7406 5.41875H12.7188C12.55 5.41875 12.4156 5.28438 12.4156 5.11563C12.4156 4.94688 12.55 4.8125 12.7188 4.8125H18.7437C19.4375 4.8125 20 5.375 20 6.06875V16.9688C20 17.6625 19.4375 18.2281 18.7437 18.2281Z" fill="#0C9900"/>
<path d="M17.853 16.9999H2.14678C1.64053 16.9999 1.22803 16.5874 1.22803 16.0812V6.95928C1.22803 6.45303 1.64053 6.04053 2.14678 6.04053H7.59053C7.75928 6.04053 7.89365 6.1749 7.89365 6.34365C7.89365 6.5124 7.75928 6.64678 7.59053 6.64678H2.14678C1.9749 6.64678 1.83428 6.7874 1.83428 6.95928V16.0812C1.83428 16.253 1.9749 16.3937 2.14678 16.3937H17.853C18.0249 16.3937 18.1655 16.253 18.1655 16.0812V6.95928C18.1655 6.7874 18.0249 6.64678 17.853 6.64678H12.7187C12.5499 6.64678 12.4155 6.5124 12.4155 6.34365C12.4155 6.1749 12.5499 6.04053 12.7187 6.04053H17.853C18.3593 6.04053 18.7718 6.45303 18.7718 6.95928V16.0812C18.7718 16.5874 18.3593 16.9999 17.853 16.9999Z" fill="#0C9900"/>
<path d="M5.64082 11.2094C4.63457 11.2094 3.81895 10.3906 3.81895 9.3875C3.81895 8.38125 4.6377 7.56562 5.64082 7.56562C6.64707 7.56562 7.4627 8.38438 7.4627 9.3875C7.46582 10.3906 6.64707 11.2094 5.64082 11.2094ZM5.64082 8.16875C4.96894 8.16875 4.4252 8.71563 4.4252 9.38438C4.4252 10.0563 4.97207 10.6 5.64082 10.6C6.3127 10.6 6.85645 10.0531 6.85645 9.38438C6.85957 8.71563 6.3127 8.16875 5.64082 8.16875ZM8.7627 15.1688H2.51895C2.3502 15.1688 2.21582 15.0344 2.21582 14.8656C2.21582 12.975 3.75332 11.4375 5.64082 11.4375C7.52832 11.4375 9.06582 12.975 9.06582 14.8656C9.06582 15.0344 8.93145 15.1688 8.7627 15.1688ZM2.8377 14.5625H8.44082C8.29082 13.15 7.09082 12.0438 5.6377 12.0438C4.19082 12.0438 2.99082 13.15 2.8377 14.5625ZM16.9002 9.05H10.1564C9.9877 9.05 9.85332 8.91562 9.85332 8.74687C9.85332 8.57812 9.9877 8.44375 10.1564 8.44375H16.9002C17.0689 8.44375 17.2033 8.57812 17.2033 8.74687C17.2033 8.91562 17.0689 9.05 16.9002 9.05ZM16.9002 10.9H10.1564C9.9877 10.9 9.85332 10.7656 9.85332 10.5969C9.85332 10.4281 9.9877 10.2937 10.1564 10.2937H16.9002C17.0689 10.2937 17.2033 10.4281 17.2033 10.5969C17.2033 10.7656 17.0689 10.9 16.9002 10.9ZM16.9002 12.7469H10.1564C9.9877 12.7469 9.85332 12.6125 9.85332 12.4437C9.85332 12.275 9.9877 12.1406 10.1564 12.1406H16.9002C17.0689 12.1406 17.2033 12.275 17.2033 12.4437C17.2033 12.6125 17.0689 12.7469 16.9002 12.7469ZM16.9002 14.5938H10.1564C9.9877 14.5938 9.85332 14.4594 9.85332 14.2906C9.85332 14.1219 9.9877 13.9875 10.1564 13.9875H16.9002C17.0689 13.9875 17.2033 14.1219 17.2033 14.2906C17.2033 14.4594 17.0689 14.5938 16.9002 14.5938ZM12.1752 7.15625H8.13145C7.6627 7.15625 7.28145 6.775 7.28145 6.30625V5.14687C7.28145 4.67812 7.6627 4.29688 8.13145 4.29688H12.1752C12.6439 4.29688 13.0252 4.67812 13.0252 5.14687V6.30625C13.0252 6.77813 12.6439 7.15625 12.1752 7.15625ZM8.13145 4.90625C7.99707 4.90625 7.8877 5.01562 7.8877 5.15V6.30938C7.8877 6.44375 7.99707 6.55312 8.13145 6.55312H12.1752C12.3096 6.55312 12.4189 6.44375 12.4189 6.30938V5.15C12.4189 5.01562 12.3096 4.90625 12.1752 4.90625H8.13145Z" fill="#0C9900"/>
<path d="M11.4 4.90615C11.2313 4.90615 11.0969 4.77178 11.0969 4.60303V3.32178C11.0969 2.80303 10.675 2.38115 10.1563 2.38115C9.6375 2.38115 9.21563 2.80303 9.21563 3.32178V4.60303C9.21563 4.77178 9.08125 4.90615 8.9125 4.90615C8.74375 4.90615 8.60938 4.77178 8.60938 4.60303V3.32178C8.60938 2.46865 9.30313 1.7749 10.1563 1.7749C11.0094 1.7749 11.7031 2.46865 11.7031 3.32178V4.60303C11.7031 4.76865 11.5688 4.90615 11.4 4.90615Z" fill="#0C9900"/>
</svg>
