<svg width="38" height="38" viewBox="0 0 38 38" fill="none" xmlns="http://www.w3.org/2000/svg">
<path d="M30.5854 3.59554C30.5854 -1.03042 38 -1.36372 38 3.59554C38 8.5548 38 37.9696 38 37.9696H30.5854C30.5854 37.9696 30.5854 8.2215 30.5854 3.59554Z" fill="#67E33C"/>
<path d="M10.1951 13.255C10.1951 9.92492 17.6098 9.68498 17.6098 13.255C17.6098 16.8251 17.6098 38 17.6098 38H10.1951C10.1951 38 10.1951 16.5851 10.1951 13.255Z" fill="#D9D9D9"/>
<path d="M1.99008e-08 19.2903C6.46778e-08 16.7725 7.41463 16.591 7.41463 19.2903C7.41463 21.9897 7.41463 38 7.41463 38H1.99008e-08C1.99008e-08 38 -2.48762e-08 21.8082 1.99008e-08 19.2903Z" fill="#D9D9D9"/>
<path d="M20.3902 7.21964C20.3902 3.07731 27.8049 2.77885 27.8049 7.21964C27.8049 11.6604 27.8049 38 27.8049 38H20.3902C20.3902 38 20.3902 11.362 20.3902 7.21964Z" fill="#D9D9D9"/>
</svg>
