<svg width="18" height="18" viewBox="0 0 20 20" fill="none" xmlns="http://www.w3.org/2000/svg">
<g clip-path="url(#clip0_10_57)">
<path d="M10 0C4.4775 0 0 4.4775 0 10C0 15.5225 4.4775 20 10 20C15.5225 20 20 15.5225 20 10C20 4.4775 15.5225 0 10 0ZM10 18.75C5.175 18.75 1.25 14.825 1.25 10C1.25 5.175 5.175 1.25 10 1.25C14.825 1.25 18.75 5.175 18.75 10C18.75 14.825 14.825 18.75 10 18.75ZM10 7.5C9.66848 7.5 9.35054 7.6317 9.11612 7.86612C8.8817 8.10054 8.75 8.41848 8.75 8.75V15C8.75 15.3315 8.8817 15.6495 9.11612 15.8839C9.35054 16.1183 9.66848 16.25 10 16.25C10.3315 16.25 10.6495 16.1183 10.8839 15.8839C11.1183 15.6495 11.25 15.3315 11.25 15V8.75C11.25 8.41848 11.1183 8.10054 10.8839 7.86612C10.6495 7.6317 10.3315 7.5 10 7.5ZM8.75 5.02C8.75 5.18415 8.78233 5.3467 8.84515 5.49835C8.90797 5.65001 9.00004 5.78781 9.11612 5.90388C9.23219 6.01996 9.36999 6.11203 9.52165 6.17485C9.6733 6.23767 9.83585 6.27 10 6.27C10.1642 6.27 10.3267 6.23767 10.4784 6.17485C10.63 6.11203 10.7678 6.01996 10.8839 5.90388C11 5.78781 11.092 5.65001 11.1548 5.49835C11.2177 5.3467 11.25 5.18415 11.25 5.02C11.25 4.85585 11.2177 4.6933 11.1548 4.54165C11.092 4.38999 11 4.25219 10.8839 4.13612C10.7678 4.02004 10.63 3.92797 10.4784 3.86515C10.3267 3.80233 10.1642 3.77 10 3.77C9.83585 3.77 9.6733 3.80233 9.52165 3.86515C9.36999 3.92797 9.23219 4.02004 9.11612 4.13612C9.00004 4.25219 8.90797 4.38999 8.84515 4.54165C8.78233 4.6933 8.75 4.85585 8.75 5.02Z" fill="#24CB2A"/>
</g>
<defs>
<clipPath id="clip0_10_57">
<rect width="20" height="20" fill="white"/>
</clipPath>
</defs>
</svg>
