<svg width="125" height="32" viewBox="0 0 125 32" fill="none" xmlns="http://www.w3.org/2000/svg">
<path d="M38.735 15.65C38.735 14.208 39.057 12.92 39.701 11.786C40.359 10.638 41.248 9.749 42.368 9.119C43.502 8.475 44.769 8.153 46.169 8.153C47.807 8.153 49.242 8.573 50.474 9.413C51.706 10.253 52.567 11.415 53.057 12.899H49.676C49.34 12.199 48.864 11.674 48.248 11.324C47.646 10.974 46.946 10.799 46.148 10.799C45.294 10.799 44.531 11.002 43.859 11.408C43.201 11.8 42.683 12.36 42.305 13.088C41.941 13.816 41.759 14.67 41.759 15.65C41.759 16.616 41.941 17.47 42.305 18.212C42.683 18.94 43.201 19.507 43.859 19.913C44.531 20.305 45.294 20.501 46.148 20.501C46.946 20.501 47.646 20.326 48.248 19.976C48.864 19.612 49.34 19.08 49.676 18.38H53.057C52.567 19.878 51.706 21.047 50.474 21.887C49.256 22.713 47.821 23.126 46.169 23.126C44.769 23.126 43.502 22.811 42.368 22.181C41.248 21.537 40.359 20.648 39.701 19.514C39.057 18.38 38.735 17.092 38.735 15.65ZM58.5081 10.715V14.39H63.4431V16.721H58.5081V20.606H64.0731V23H55.5681V8.321H64.0731V10.715H58.5081ZM74.3049 23L71.0709 17.288H69.6849V23H66.7449V8.342H72.2469C73.3809 8.342 74.3469 8.545 75.1449 8.951C75.9429 9.343 76.5379 9.882 76.9299 10.568C77.3359 11.24 77.5389 11.996 77.5389 12.836C77.5389 13.802 77.2589 14.677 76.6989 15.461C76.1389 16.231 75.3059 16.763 74.1999 17.057L77.7069 23H74.3049ZM69.6849 15.083H72.1419C72.9399 15.083 73.5349 14.894 73.9269 14.516C74.3189 14.124 74.5149 13.585 74.5149 12.899C74.5149 12.227 74.3189 11.709 73.9269 11.345C73.5349 10.967 72.9399 10.778 72.1419 10.778H69.6849V15.083ZM90.173 8.342V10.715H86.267V23H83.327V10.715H79.421V8.342H90.173Z" fill="white"/>
<path d="M95.2581 8.342V23H92.3181V8.342H95.2581ZM107.214 8.342V10.715H101.103V14.474H105.786V16.805H101.103V23H98.1629V8.342H107.214ZM120.954 8.342L115.998 17.897V23H113.058V17.897L108.081 8.342H111.399L114.549 15.041L117.678 8.342H120.954Z" fill="#5CEA5A"/>
<g clip-path="url(#clip0_6_1606)">
<path opacity="0.16" d="M10.0617 14.7773C10.6855 12.5453 13.0766 10.252 15.401 9.65333L29.8976 5.92533C32.2219 5.328 33.6016 6.652 32.9791 8.88266L29.0931 22.7947C28.4693 25.0267 26.0782 27.32 23.7538 27.9187L9.25867 31.6467C6.93428 32.244 5.55465 30.92 6.17708 28.6893L10.0617 14.7773Z" fill="#5CEA5A"/>
<path d="M4.25146 9.19994C4.8739 6.96794 7.26359 4.6746 9.58937 4.07594L24.0859 0.347938C26.4103 -0.249395 27.7913 1.07461 27.1675 3.30527L23.2829 17.2173C22.659 19.4493 20.2693 21.7426 17.9436 22.3413L3.44703 26.0693C1.12263 26.6666 -0.256996 25.3426 0.365436 23.1119L4.25146 9.19994Z" fill="#5CEA5A"/>
</g>
<defs>
<clipPath id="clip0_6_1606">
<rect width="33.3445" height="32" fill="white"/>
</clipPath>
</defs>
</svg>
