<svg width="64" height="64" viewBox="0 0 64 64" fill="none" xmlns="http://www.w3.org/2000/svg">
<circle cx="32" cy="32" r="32" fill="#09977C" fill-opacity="0.1"/>
<path fill-rule="evenodd" clip-rule="evenodd" d="M31.5651 47.8619C31.7423 47.9544 31.9404 48.0015 32.1385 47.9999C32.3367 47.9984 32.5332 47.9497 32.712 47.8556L38.4206 44.8039C40.0394 43.941 41.3071 42.9761 42.2961 41.8527C44.4465 39.4051 45.6208 36.2813 45.5998 33.0602L45.5322 22.4352C45.5257 21.2114 44.722 20.1194 43.5332 19.7224L32.9133 16.1593C32.2738 15.9428 31.5732 15.9475 30.9449 16.1703L20.3653 19.8605C19.183 20.2731 18.3937 21.373 18.4002 22.5983L18.4678 33.2155C18.4888 36.4413 19.7033 39.551 21.8891 41.9735C22.8878 43.0812 24.1668 44.032 25.8033 44.8808L31.5651 47.8619ZM30.0539 35.3743C30.2923 35.6034 30.6015 35.7163 30.9108 35.7132C31.2201 35.7116 31.5277 35.5955 31.7629 35.3633L38.0015 29.213C38.4702 28.7501 38.4654 28.0064 37.9918 27.5498C37.5166 27.0933 36.7515 27.0964 36.2828 27.5593L30.8931 32.8718L28.6863 30.7505C28.2111 30.294 27.4476 30.2987 26.9773 30.7615C26.5085 31.2244 26.5134 31.9681 26.9886 32.4246L30.0539 35.3743Z" fill="#00FF38"/>
</svg>
