<svg width="64" height="64" viewBox="0 0 64 64" fill="none" xmlns="http://www.w3.org/2000/svg">
<circle cx="32" cy="32" r="32" fill="#09977C" fill-opacity="0.1"/>
<path d="M41.4697 35.7122C41.0553 36.1138 40.8649 36.6946 40.9593 37.2642L42.3817 45.1362C42.5017 45.8034 42.2201 46.4786 41.6617 46.8642C41.1145 47.2642 40.3865 47.3122 39.7897 46.9922L32.7033 43.2962C32.4569 43.165 32.1833 43.0946 31.9033 43.0866H31.4697C31.3193 43.109 31.1721 43.157 31.0377 43.2306L23.9497 46.9442C23.5993 47.1202 23.2025 47.1826 22.8137 47.1202C21.8665 46.941 21.2345 46.0386 21.3897 45.0866L22.8137 37.2146C22.9081 36.6402 22.7177 36.0562 22.3033 35.6482L16.5257 30.0482C16.0425 29.5794 15.8745 28.8754 16.0953 28.2402C16.3097 27.6066 16.8569 27.1442 17.5177 27.0402L25.4697 25.8866C26.0745 25.8242 26.6057 25.4562 26.8777 24.9122L30.3817 17.7282C30.4649 17.5682 30.5721 17.421 30.7017 17.2962L30.8457 17.1842C30.9209 17.101 31.0073 17.0322 31.1033 16.9762L31.2777 16.9122L31.5497 16.8002H32.2233C32.8249 16.8626 33.3545 17.2226 33.6313 17.7602L37.1817 24.9122C37.4377 25.4354 37.9353 25.7986 38.5097 25.8866L46.4617 27.0402C47.1337 27.1362 47.6953 27.6002 47.9177 28.2402C48.1273 28.8818 47.9465 29.5858 47.4537 30.0482L41.4697 35.7122Z" fill="#00FF29"/>
</svg>
