<svg xmlns="http://www.w3.org/2000/svg" viewBox="0 0 1000 600" id="files-and-docs"><g data-name="files and doc"><circle cx="418.751" cy="300.136" r="182.397" fill="#d9ebff"></circle><circle cx="700.947" cy="193.668" r="80.282" fill="#d9ebff"></circle><path fill="#a9c0ff" d="M742.51172,419.08594a1.50039,1.50039,0,0,1-1.5-1.5V288.90039H693.5498a1.50039,1.50039,0,0,1-1.5-1.5V189.09961H369.082v41.53418a1.50039,1.50039,0,0,1-1.5,1.5H266.25977v72.72656h23.66894a1.50039,1.50039,0,0,1,1.5,1.5v15.98047a1.5,1.5,0,0,1-3,0V307.86035H264.75977a1.50038,1.50038,0,0,1-1.5-1.5V230.63379a1.50038,1.50038,0,0,1,1.5-1.5H366.082V187.59961a1.50039,1.50039,0,0,1,1.5-1.5H693.5498a1.50038,1.50038,0,0,1,1.5,1.5v98.30078h47.46192a1.50039,1.50039,0,0,1,1.5,1.5V417.58594A1.50039,1.50039,0,0,1,742.51172,419.08594Z"></path><path fill="#779dd8" d="M577.96523,133.74844V242.75527a3.54991,3.54991,0,0,1-3.55071,3.55071H464.893a3.56107,3.56107,0,0,1-3.55071-3.55071V118.64015a3.54963,3.54963,0,0,1,3.55071-3.55071h94.39549Z"></path><rect width="25.83" height="25.83" x="474.725" y="132.605" fill="#fff" rx="3"></rect><rect width="25.83" height="25.83" x="506.739" y="132.605" fill="#fff" rx="3"></rect><rect width="89.836" height="4" x="474.725" y="167.529" fill="#4d76b8"></rect><rect width="89.836" height="4" x="474.725" y="180.639" fill="#4d76b8"></rect><rect width="89.836" height="4" x="474.725" y="193.747" fill="#4d76b8"></rect><rect width="89.836" height="4" x="474.725" y="206.856" fill="#4d76b8"></rect><rect width="89.836" height="4" x="474.725" y="219.965" fill="#4d76b8"></rect><rect width="89.836" height="4" x="474.725" y="233.074" fill="#4d76b8"></rect><path fill="#a9c0ff" d="M578.48015 134.26325H561.06381a1.77535 1.77535 0 01-1.77535-1.77536V115.08944l18.67677 18.659zM598.86572 155.753V264.75983a3.54991 3.54991 0 01-3.55071 3.55071H485.79346a3.56107 3.56107 0 01-3.55071-3.55071V140.64471a3.54963 3.54963 0 013.55071-3.55071H580.189z"></path><path fill="#4d76b8" d="M599.38064,156.26781H581.9643a1.77535,1.77535,0,0,1-1.77535-1.77535V137.094l18.67677,18.659Z"></path><rect width="30.922" height="27.341" x="497.164" y="160.842" fill="#fff" rx="2"></rect><rect width="82.319" height="3" x="497.869" y="243.318" fill="#456ba3"></rect><rect width="82.319" height="3" x="497.869" y="233.554" fill="#456ba3"></rect><rect width="82.319" height="3" x="497.869" y="223.789" fill="#456ba3"></rect><rect width="82.319" height="3" x="497.869" y="214.024" fill="#456ba3"></rect><rect width="82.319" height="3" x="497.869" y="204.259" fill="#456ba3"></rect><rect width="82.319" height="3" x="497.869" y="194.494" fill="#456ba3"></rect><rect width="42.989" height="3" x="537.199" y="184.729" fill="#456ba3"></rect><rect width="42.989" height="3" x="537.199" y="174.965" fill="#456ba3"></rect><rect width="42.989" height="3" x="537.199" y="165.2" fill="#456ba3"></rect><rect width="46.323" height="46.323" x="514.4" y="415.788" fill="#a9c0ff"></rect><path fill="#6299e8" d="M514.3999,459.11107V418.78825a3,3,0,0,0-3-3H503a3,3,0,0,0-3,3v54.72284a3,3,0,0,0,3,3h54.7229a3,3,0,0,0,3-3v-8.4a3,3,0,0,0-3-3h-40.323A3,3,0,0,1,514.3999,459.11107Z"></path><path fill="#c2d5ff" d="M544.76135,462.11107v14.4h43.323a3,3,0,0,0,3-3v-8.4a3,3,0,0,0-3-3Z"></path><circle cx="675.106" cy="405.995" r="51.334" fill="#d9ebff"></circle><path fill="#a9c0ff" d="M302.33691 183.12012H262.49609a1.5 1.5 0 010-3h39.84082a1.5 1.5 0 010 3zM302.33691 193.2002H262.49609a1.5 1.5 0 010-3h39.84082a1.5 1.5 0 010 3zM302.33691 203.28027H262.49609a1.5 1.5 0 010-3h39.84082a1.5 1.5 0 010 3zM817.3252 407.94727H777.48438a1.5 1.5 0 010-3H817.3252a1.5 1.5 0 010 3zM817.3252 418.02734H777.48438a1.5 1.5 0 010-3H817.3252a1.5 1.5 0 010 3zM817.3252 428.10742H777.48438a1.5 1.5 0 010-3H817.3252a1.5 1.5 0 010 3z"></path><rect width="266.4" height="192.863" x="386.092" y="232.925" fill="#6299e8" rx="6"></rect><path fill="#4d76b8" d="M646.49219,427.28809H392.0918a7.5082,7.5082,0,0,1-7.5-7.5V238.9248a7.5082,7.5082,0,0,1,7.5-7.5H646.49219a7.5082,7.5082,0,0,1,7.5,7.5V419.78809A7.5082,7.5082,0,0,1,646.49219,427.28809ZM392.0918,234.4248a4.50492,4.50492,0,0,0-4.5,4.5V419.78809a4.50492,4.50492,0,0,0,4.5,4.5H646.49219a4.50493,4.50493,0,0,0,4.5-4.5V238.9248a4.50493,4.50493,0,0,0-4.5-4.5Z"></path><rect width="266.4" height="192.863" x="402.8" y="232.925" fill="#fff" rx="6"></rect><rect width="226.1" height="153.276" x="422.95" y="252.718" fill="#d9ebff" rx="6"></rect><path fill="#4d76b8" d="M663.2002,427.28809H408.7998a7.5082,7.5082,0,0,1-7.5-7.5V238.9248a7.5082,7.5082,0,0,1,7.5-7.5H663.2002a7.5082,7.5082,0,0,1,7.5,7.5V419.78809A7.5082,7.5082,0,0,1,663.2002,427.28809ZM408.7998,234.4248a4.50493,4.50493,0,0,0-4.5,4.5V419.78809a4.50493,4.50493,0,0,0,4.5,4.5H663.2002a4.50493,4.50493,0,0,0,4.5-4.5V238.9248a4.50493,4.50493,0,0,0-4.5-4.5Z"></path><path fill="#a9c0ff" d="M643.0498 252.71849H428.9502a6 6 0 00-6 6v16.52179H649.0498V258.71849A6 6 0 00643.0498 252.71849zM422.9502 386.848v13.14691a6 6 0 006 6H643.0498a6 6 0 006-6V386.848z"></path><path fill="#6299e8" d="M645.55554,475.49165H691.715a11.48041,11.48041,0,0,1-11.16079-8.79036l-14.92808-61.93566a11.48041,11.48041,0,0,0-11.16079-8.79037h-3.74588a11.48041,11.48041,0,0,0-11.16851,14.13823l12.43641,52.25938a11.4804,11.4804,0,0,1-11.16851,14.13822h0Z"></path><path fill="#4d76b8" d="M648.91969 395.87332h46.15946l.1078 0 15.04883 65.56987a11.4804 11.4804 0 01-11.18949 14.04848H691.715a11.48041 11.48041 0 01-11.16079-8.79036l-14.92808-61.93566a11.48041 11.48041 0 00-11.16079-8.79037zM625.17644 453.98145l4.65938 14.39189a11.48039 11.48039 0 0010.983 8.13775h0a11.4804 11.4804 0 0011.16851-14.13822l-1.99695-8.39142z"></path><path fill="#6299e8" d="M699.04629,475.49165a11.4804,11.4804,0,0,0,11.18949-14.04848l-24.9503-108.712A11.4804,11.4804,0,0,1,696.475,338.68269h4.47246l62.34129,14.04848,24.9503,108.712a11.4804,11.4804,0,0,1-11.18949,14.04848H699.04629Z"></path><path fill="#4d76b8" d="M774.4782,338.68269h4.47245a11.48039,11.48039,0,0,1,11.0313,8.30079l5.20536,18.05941a11.48042,11.48042,0,0,0,11.03131,8.30079H728.21539a11.48041,11.48041,0,0,1-11.03131-8.30079l-5.20536-18.05941a11.4804,11.4804,0,0,0-11.0313-8.30079Z"></path><path fill="#92b1ef" d="M728.21539,373.34368h1.25566a11.48041,11.48041,0,0,0,11.16152-14.16744l-1.89042-7.85249h78.00323l1.89042,7.85249a11.48041,11.48041,0,0,1-11.16152,14.16744H728.21539Z"></path><rect width="54.691" height="3" x="703.735" y="390.807" fill="#4d76b8"></rect><rect width="54.692" height="3" x="707.488" y="403.887" fill="#4d76b8"></rect><rect width="54.691" height="3" x="711.327" y="417.086" fill="#4d76b8"></rect><rect width="54.691" height="3" x="715.166" y="430.286" fill="#4d76b8"></rect><rect width="54.691" height="3" x="719.004" y="443.486" fill="#4d76b8"></rect><rect width="54.691" height="3" x="722.843" y="456.687" fill="#4d76b8"></rect><rect width="26.994" height="3" x="652.354" y="415.111" fill="#4d76b8"></rect><rect width="26.994" height="3" x="654.206" y="428.191" fill="#4d76b8"></rect><rect width="26.994" height="3" x="656.101" y="441.391" fill="#4d76b8"></rect><rect width="26.994" height="3" x="657.995" y="454.591" fill="#4d76b8"></rect><path fill="#618ac6" d="M224.85345,476.51109l118.81424-.1956a7.1857,7.1857,0,0,0,7.1918-7.17961l14.25517-77.50279a7.18572,7.18572,0,0,0-7.17962-7.1918L211.70553,412.34543a7.24988,7.24988,0,0,0-.97511.06477c-4.44348.599-6.86405,5.59129-5.11065,9.7179l12.05406,47.19119A7.1857,7.1857,0,0,0,224.85345,476.51109Z"></path><path fill="#a9c0ff" d="M346.83865,476.51109H233.01954V328.48437a4,4,0,0,1,4-4H342.83865a4,4,0,0,1,4,4Z"></path><rect width="38.104" height="3" x="289.929" y="347.504" fill="#456ba3"></rect><rect width="38.104" height="3" x="289.929" y="363.356" fill="#456ba3"></rect><rect width="38.104" height="3" x="289.929" y="379.208" fill="#456ba3"></rect><path fill="#4d76b8" d="M356.79936,453.211h-34.216v-35.625h39.3208a5.67578,5.67578,0,0,1,5.55428,6.84386l-5.10477,24.27342A5.67577,5.67577,0,0,1,356.79936,453.211Z"></path><path fill="#6194e0" d="M221.0015,476.407l122.73191.10407a7.18571,7.18571,0,0,0,7.1918-7.17962l-19.7926-81.39681a7.1857,7.1857,0,0,0-7.17961-7.1918l-40.81624-.03461a7.18572,7.18572,0,0,0-5.88382,3.05209l-6.86176,17.82758a7.18573,7.18573,0,0,1-5.88382,3.0521l-63.30658-.04887a7.18571,7.18571,0,0,0-7.1918,7.17962l19.81291,57.44445A7.1857,7.1857,0,0,0,221.0015,476.407Z"></path><path fill="#4d76b8" d="M258.68608,440.16447l-23.62989-19.97125a1.419,1.419,0,0,0-2.33488,1.08373v2.59042a1.41894,1.41894,0,0,1-1.41894,1.41894H198.62429L181.04,421.43618V460.911h50.26237a1.41894,1.41894,0,0,1,1.41894,1.41895v1.92577a1.419,1.419,0,0,0,2.40882,1.01665L258.76,442.26485A1.419,1.419,0,0,0,258.68608,440.16447Z"></path><path fill="#4469a0" d="M198.62432,425.2862H184.8901a3.85007,3.85007,0,0,1-3.85007-3.85006v0a3.85008,3.85008,0,0,1,3.85007-3.85007h11.12461Z"></path><rect width="27.046" height="31.705" x="245.421" y="349.004" fill="#d9ebff" rx="1"></rect><rect width="637.92" height="9" x="181.04" y="476.511" fill="#456ba3"></rect><g opacity=".28"><path fill="#6299e8" d="M443.42588,279.81636H305.14838a1.46655,1.46655,0,0,1-1.46655-1.46655V196.55655a1.46655,1.46655,0,0,1,1.46655-1.46655h82.5685a1.46656,1.46656,0,0,1,1.13126.53326l17.18194,20.82659a1.46656,1.46656,0,0,0,1.13126.53327h36.26454a1.46654,1.46654,0,0,1,1.46655,1.46655v59.90014A1.46655,1.46655,0,0,1,443.42588,279.81636Z"></path></g><path fill="#fff" d="M430.01563,263.14461H291.73813a1.46655,1.46655,0,0,1-1.46655-1.46655V179.8848a1.46654,1.46654,0,0,1,1.46655-1.46655h82.56849a1.46654,1.46654,0,0,1,1.13126.53326l17.18195,20.82659a1.46654,1.46654,0,0,0,1.13125.53326h36.26455a1.46655,1.46655,0,0,1,1.46655,1.46655v59.90015A1.46655,1.46655,0,0,1,430.01563,263.14461Z"></path><rect width="40.147" height="9.852" x="380.088" y="242.948" fill="#a9c0ff" rx="2"></rect><rect width="40.147" height="9.852" x="380.088" y="225.707" fill="#a9c0ff" rx="2"></rect><path fill="#a9c0ff" d="M337.47447,250.66553H308.81476a1.46655,1.46655,0,0,1-1.46655-1.46655v-22.025a1.46655,1.46655,0,0,1,1.46655-1.46655h37.1313a1.46655,1.46655,0,0,1,1.46655,1.46655v15.54244a1.46656,1.46656,0,0,1-.57532,1.16468l-8.47158,6.48261A1.46661,1.46661,0,0,1,337.47447,250.66553Z"></path><rect width="32.84" height="9.852" x="307.348" y="193.689" fill="#a9c0ff" rx="2"></rect><path fill="#4d76b8" d="M430.01562,264.64453H291.73828a2.97036,2.97036,0,0,1-2.9668-2.9668v-81.793a2.97036,2.97036,0,0,1,2.9668-2.9668h82.56836a2.95529,2.95529,0,0,1,2.28711,1.07812l17.18359,20.82715,36.23828-.01172a2.97036,2.97036,0,0,1,2.9668,2.9668v59.89941A2.97035,2.97035,0,0,1,430.01562,264.64453Zm-55.73535-84.73926-82.542.0127.0332,81.75976,138.21094-.0332V201.77832l-36.23144.0332a2.9572,2.9572,0,0,1-2.28907-1.0791Z"></path><path fill="#779dd8" d="M681.44065,253.57148l-30.55786-86.84971a5.56818,5.56818,0,0,1,3.38673-7.1091l56.6023-20.07417a5.56816,5.56816,0,0,1,7.10909,3.38672l30.37581,97.7849a5.61943,5.61943,0,0,1,.20465.7291c.71058,3.40094-2.31107,6.45925-5.77881,6.2446l-54.23281,9.27438A5.56818,5.56818,0,0,1,681.44065,253.57148Z"></path><path fill="#92b1ef" d="M677.8497,245.37053l-31.78907-89.6343a5.56818,5.56818,0,0,1,3.38672-7.1091l62.55509-22.18535a5.56819,5.56819,0,0,1,7.1091,3.38673l10.5719,29.80915a5.56818,5.56818,0,0,1-.70935,5.087l-9.78424,13.76576a5.56818,5.56818,0,0,0-.70936,5.087l14.92709,42.08927a5.56819,5.56819,0,0,1-3.38673,7.1091l-45.062,15.98139A5.56818,5.56818,0,0,1,677.8497,245.37053Z"></path><rect width="50.34" height="4" x="658.848" y="147.752" fill="#4d76b8" transform="rotate(-20.523 684.018 149.752)"></rect><rect width="50.341" height="4" x="663.594" y="159.655" fill="#4d76b8" transform="rotate(-20.523 688.764 161.655)"></rect><rect width="50.34" height="4" x="668.38" y="172.024" fill="#4d76b8" transform="rotate(-20.523 693.55 174.024)"></rect><path fill="#a9c0ff" d="M493.03968 322.34062H440.87742a.55323.55323 0 01-.55323-.55323V290.93261a.55323.55323 0 01.55323-.55323h31.14722a.55321.55321 0 01.42674.20117l6.48153 7.85639a.55323.55323 0 00.42674.20116h13.68a.55323.55323 0 01.55323.55323v22.59606A.55323.55323 0 01493.03968 322.34062zM562.08113 322.34062H509.91887a.55323.55323 0 01-.55323-.55323V290.93261a.55323.55323 0 01.55323-.55323h31.14722a.55321.55321 0 01.42674.20117l6.48153 7.85639a.55323.55323 0 00.42674.20116h13.68a.55323.55323 0 01.55323.55323v22.59606A.55323.55323 0 01562.08113 322.34062zM631.12258 322.34062H578.96032a.55323.55323 0 01-.55323-.55323V290.93261a.55323.55323 0 01.55323-.55323h31.14722a.55321.55321 0 01.42674.20117l6.48153 7.85639a.55323.55323 0 00.42674.20116h13.68a.55323.55323 0 01.55323.55323v22.59606A.55323.55323 0 01631.12258 322.34062z"></path><path fill="#456ba3" d="M491.59277,347.94043H442.32422a3.50424,3.50424,0,0,1-3.5-3.5V333.08008a3.50424,3.50424,0,0,1,3.5-3.5h49.26855a3.50424,3.50424,0,0,1,3.5,3.5v11.36035A3.50424,3.50424,0,0,1,491.59277,347.94043Zm-49.26855-15.36035a.501.501,0,0,0-.5.5v11.36035a.501.501,0,0,0,.5.5h49.26855a.501.501,0,0,0,.5-.5V333.08008a.501.501,0,0,0-.5-.5Z"></path><rect width="53.269" height="15.36" x="578.407" y="331.08" fill="#a9c0ff" rx="2"></rect><rect width="53.269" height="15.36" x="578.407" y="355.179" fill="#fff" rx="2"></rect></g></svg>