<svg width="26" height="26" viewBox="0 0 26 26" fill="none" xmlns="http://www.w3.org/2000/svg">
<path fill-rule="evenodd" clip-rule="evenodd" d="M19.6923 12.0833C19.6923 10.6789 19.6923 9.49254 19.6923 8.86949C19.6923 8.4187 19.5106 7.98605 19.1846 7.6673L16.9779 5.49782C16.6519 5.17907 16.2106 5 15.7519 5C14.4221 5 10.6519 5 8.73077 5C8.27212 5 7.83077 5.17907 7.5077 5.49782C7.18173 5.81685 7 6.24922 7 6.7C7 9.6206 7 17.3794 7 20.3C7 21.239 7.77596 22 8.73077 22H13.3462C13.6635 22 13.9231 21.7461 13.9231 21.4333C13.9231 21.1205 13.6635 20.8667 13.3462 20.8667H8.73077C8.41058 20.8667 8.15385 20.6131 8.15385 20.3C8.15385 17.3794 8.15385 9.6206 8.15385 6.7C8.15385 6.54983 8.21441 6.40562 8.32403 6.29937C8.43076 6.19312 8.57788 6.13333 8.73077 6.13333H15.7519C15.9048 6.13333 16.0519 6.19312 16.1615 6.29937L18.3683 8.46885C18.4779 8.5751 18.5385 8.71904 18.5385 8.86949V12.0833C18.5385 12.3961 18.7981 12.65 19.1154 12.65C19.4327 12.65 19.6923 12.3961 19.6923 12.0833ZM17.3846 12.9333C14.8375 12.9333 12.7692 14.9645 12.7692 17.4667C12.7692 19.9688 14.8375 22 17.3846 22C19.9317 22 22 19.9688 22 17.4667C22 14.9645 19.9317 12.9333 17.3846 12.9333ZM17.3846 14.0667C19.2942 14.0667 20.8462 15.5901 20.8462 17.4667C20.8462 19.3432 19.2942 20.8667 17.3846 20.8667C15.475 20.8667 13.9231 19.3432 13.9231 17.4667C13.9231 15.5901 15.475 14.0667 17.3846 14.0667ZM18.4202 16.216L16.8077 17.7987L16.349 17.3494C16.124 17.1281 15.7606 17.1281 15.5356 17.3494C15.3106 17.5704 15.3106 17.9296 15.5356 18.1506L16.401 19.0006C16.626 19.2219 16.9894 19.2219 17.2144 19.0006L19.2337 17.0173C19.4587 16.7963 19.4587 16.437 19.2337 16.216C19.0087 15.9947 18.6452 15.9947 18.4202 16.216Z" fill="#4CCE3E"/>
<path d="M26 13C26 20.1797 20.1797 26 13 26C5.8203 26 0 20.1797 0 13C0 5.8203 5.8203 0 13 0C20.1797 0 26 5.8203 26 13Z" fill="#56FF06" fill-opacity="0.08"/>
<path d="M25.75 13C25.75 20.0416 20.0416 25.75 13 25.75C5.95837 25.75 0.25 20.0416 0.25 13C0.25 5.95837 5.95837 0.25 13 0.25C20.0416 0.25 25.75 5.95837 25.75 13Z" stroke="#218D06" stroke-opacity="0.59" stroke-width="0.5"/>
</svg>
