<svg width="175" height="39" viewBox="0 0 175 39" fill="none" xmlns="http://www.w3.org/2000/svg">
<rect x="0.5" y="0.5" width="174" height="38" rx="19" fill="white"/>
<rect x="0.5" y="0.5" width="174" height="38" rx="19" stroke="url(#paint0_linear_203_34)"/>
<path d="M39.5482 23.7287L34.5859 20.6475L39.5475 28L44.5138 20.6475L39.5462 23.7287H39.5482ZM39.6237 11L34.6601 19.658L39.623 22.742L44.5859 19.6608L39.6237 11Z" fill="#2B2A2A"/>
<path d="M58.9464 18.2543H57.5364C57.4822 17.953 57.3812 17.6878 57.2336 17.4589C57.086 17.2299 56.9052 17.0356 56.6913 16.8759C56.4774 16.7162 56.2378 16.5957 55.9727 16.5143C55.7106 16.433 55.4319 16.3923 55.1366 16.3923C54.6034 16.3923 54.1258 16.5264 53.704 16.7945C53.2852 17.0627 52.9538 17.4559 52.7097 17.9741C52.4687 18.4923 52.3482 19.125 52.3482 19.8722C52.3482 20.6254 52.4687 21.2611 52.7097 21.7794C52.9538 22.2976 53.2867 22.6892 53.7085 22.9544C54.1303 23.2195 54.6049 23.3521 55.1321 23.3521C55.4244 23.3521 55.7016 23.3129 55.9637 23.2346C56.2288 23.1532 56.4683 23.0342 56.6823 22.8776C56.8962 22.7209 57.0769 22.5296 57.2246 22.3036C57.3752 22.0746 57.4792 21.8125 57.5364 21.5172L58.9464 21.5218C58.8711 21.9767 58.725 22.3955 58.5081 22.7781C58.2942 23.1578 58.0185 23.4862 57.681 23.7633C57.3466 24.0375 56.964 24.2499 56.5331 24.4006C56.1023 24.5512 55.6323 24.6265 55.1231 24.6265C54.3216 24.6265 53.6076 24.4367 52.9809 24.0571C52.3542 23.6745 51.8601 23.1276 51.4986 22.4166C51.14 21.7055 50.9608 20.8574 50.9608 19.8722C50.9608 18.884 51.1415 18.0358 51.5031 17.3278C51.8646 16.6168 52.3587 16.0714 52.9854 15.6918C53.6121 15.3092 54.3247 15.1178 55.1231 15.1178C55.6142 15.1178 56.0721 15.1886 56.497 15.3303C56.9248 15.4688 57.3089 15.6737 57.6494 15.9449C57.9898 16.213 58.2716 16.5414 58.4945 16.9301C58.7175 17.3158 58.8681 17.7571 58.9464 18.2543ZM63.433 24.6401C62.7822 24.6401 62.2143 24.491 61.7292 24.1927C61.2442 23.8944 60.8675 23.4771 60.5994 22.9408C60.3312 22.4045 60.1972 21.7778 60.1972 21.0608C60.1972 20.3407 60.3312 19.711 60.5994 19.1717C60.8675 18.6324 61.2442 18.2136 61.7292 17.9153C62.2143 17.617 62.7822 17.4679 63.433 17.4679C64.0838 17.4679 64.6517 17.617 65.1368 17.9153C65.6219 18.2136 65.9985 18.6324 66.2666 19.1717C66.5348 19.711 66.6689 20.3407 66.6689 21.0608C66.6689 21.7778 66.5348 22.4045 66.2666 22.9408C65.9985 23.4771 65.6219 23.8944 65.1368 24.1927C64.6517 24.491 64.0838 24.6401 63.433 24.6401ZM63.4375 23.5057C63.8593 23.5057 64.2088 23.3943 64.486 23.1713C64.7632 22.9484 64.9681 22.6516 65.1007 22.281C65.2362 21.9104 65.304 21.5022 65.304 21.0563C65.304 20.6134 65.2362 20.2066 65.1007 19.836C64.9681 19.4624 64.7632 19.1627 64.486 18.9367C64.2088 18.7107 63.8593 18.5977 63.4375 18.5977C63.0127 18.5977 62.6602 18.7107 62.38 18.9367C62.1028 19.1627 61.8964 19.4624 61.7609 19.836C61.6283 20.2066 61.562 20.6134 61.562 21.0563C61.562 21.5022 61.6283 21.9104 61.7609 22.281C61.8964 22.6516 62.1028 22.9484 62.38 23.1713C62.6602 23.3943 63.0127 23.5057 63.4375 23.5057ZM69.5285 20.3784V24.5H68.1772V17.5583H69.4743V18.6881H69.5601C69.7198 18.3206 69.9699 18.0253 70.3103 17.8023C70.6538 17.5794 71.0862 17.4679 71.6074 17.4679C72.0804 17.4679 72.4947 17.5673 72.8502 17.7662C73.2057 17.962 73.4814 18.2543 73.6772 18.6429C73.8731 19.0316 73.971 19.5122 73.971 20.0846V24.5H72.6197V20.2473C72.6197 19.7441 72.4887 19.351 72.2265 19.0677C71.9644 18.7815 71.6044 18.6384 71.1464 18.6384C70.8331 18.6384 70.5544 18.7062 70.3103 18.8418C70.0693 18.9774 69.878 19.1762 69.7364 19.4383C69.5978 19.6974 69.5285 20.0108 69.5285 20.3784ZM77.1345 20.3784V24.5H75.7833V17.5583H77.0803V18.6881H77.1662C77.3259 18.3206 77.5759 18.0253 77.9164 17.8023C78.2599 17.5794 78.6922 17.4679 79.2134 17.4679C79.6865 17.4679 80.1007 17.5673 80.4563 17.7662C80.8118 17.962 81.0875 18.2543 81.2833 18.6429C81.4791 19.0316 81.5771 19.5122 81.5771 20.0846V24.5H80.2258V20.2473C80.2258 19.7441 80.0947 19.351 79.8326 19.0677C79.5705 18.7815 79.2104 18.6384 78.7525 18.6384C78.4391 18.6384 78.1604 18.7062 77.9164 18.8418C77.6754 18.9774 77.484 19.1762 77.3424 19.4383C77.2038 19.6974 77.1345 20.0108 77.1345 20.3784ZM86.3811 24.6401C85.6972 24.6401 85.1082 24.494 84.6141 24.2017C84.123 23.9065 83.7433 23.4922 83.4752 22.9589C83.21 22.4226 83.0775 21.7944 83.0775 21.0743C83.0775 20.3633 83.21 19.7366 83.4752 19.1943C83.7433 18.652 84.1169 18.2287 84.596 17.9244C85.078 17.6201 85.6415 17.4679 86.2862 17.4679C86.6779 17.4679 87.0575 17.5327 87.4251 17.6622C87.7927 17.7918 88.1226 17.9952 88.4148 18.2723C88.7071 18.5495 88.9376 18.9096 89.1063 19.3525C89.275 19.7924 89.3594 20.3271 89.3594 20.9568V21.4359H83.8412V20.4236H88.0352C88.0352 20.068 87.9629 19.7532 87.8183 19.479C87.6736 19.2018 87.4703 18.9834 87.2082 18.8237C86.949 18.664 86.6447 18.5842 86.2952 18.5842C85.9156 18.5842 85.5842 18.6776 85.301 18.8644C85.0208 19.0482 84.8039 19.2892 84.6502 19.5875C84.4996 19.8827 84.4242 20.2036 84.4242 20.5501V21.341C84.4242 21.805 84.5056 22.1997 84.6683 22.525C84.834 22.8504 85.0645 23.099 85.3597 23.2707C85.655 23.4395 86 23.5238 86.3947 23.5238C86.6508 23.5238 86.8843 23.4877 87.0952 23.4154C87.3061 23.34 87.4884 23.2286 87.642 23.0809C87.7957 22.9333 87.9132 22.751 87.9945 22.5341L89.2735 22.7646C89.1711 23.1412 88.9873 23.4711 88.7221 23.7543C88.46 24.0345 88.1301 24.2529 87.7324 24.4096C87.3377 24.5633 86.8873 24.6401 86.3811 24.6401ZM93.7827 24.6401C93.1108 24.6401 92.5323 24.4879 92.0472 24.1836C91.5652 23.8763 91.1946 23.453 90.9355 22.9137C90.6764 22.3744 90.5468 21.7568 90.5468 21.0608C90.5468 20.3558 90.6794 19.7336 90.9445 19.1943C91.2097 18.652 91.5833 18.2287 92.0653 17.9244C92.5474 17.6201 93.1153 17.4679 93.7691 17.4679C94.2964 17.4679 94.7664 17.5658 95.1791 17.7617C95.5919 17.9545 95.9248 18.2256 96.1779 18.5751C96.434 18.9246 96.5862 19.3329 96.6344 19.7999H95.3192C95.2469 19.4745 95.0812 19.1943 94.8221 18.9593C94.566 18.7243 94.2226 18.6068 93.7917 18.6068C93.4151 18.6068 93.0852 18.7062 92.802 18.9051C92.5218 19.1009 92.3033 19.3811 92.1467 19.7457C91.99 20.1072 91.9117 20.535 91.9117 21.0291C91.9117 21.5353 91.9885 21.9722 92.1421 22.3398C92.2958 22.7073 92.5127 22.992 92.7929 23.1939C93.0761 23.3958 93.4091 23.4967 93.7917 23.4967C94.0478 23.4967 94.2798 23.45 94.4877 23.3566C94.6986 23.2602 94.8748 23.1231 95.0165 22.9453C95.1611 22.7676 95.262 22.5537 95.3192 22.3036H96.6344C96.5862 22.7525 96.44 23.1532 96.196 23.5057C95.952 23.8583 95.6251 24.1354 95.2153 24.3373C94.8086 24.5392 94.331 24.6401 93.7827 24.6401ZM101.32 17.5583V18.6429H97.5281V17.5583H101.32ZM98.5449 15.8952H99.8962V22.4618C99.8962 22.7239 99.9354 22.9212 100.014 23.0538C100.092 23.1834 100.193 23.2722 100.317 23.3205C100.443 23.3656 100.58 23.3882 100.728 23.3882C100.836 23.3882 100.931 23.3807 101.012 23.3656C101.094 23.3506 101.157 23.3385 101.202 23.3295L101.446 24.4458C101.368 24.4759 101.257 24.506 101.112 24.5362C100.967 24.5693 100.787 24.5874 100.57 24.5904C100.214 24.5964 99.8827 24.5331 99.5753 24.4006C99.268 24.268 99.0195 24.0631 98.8296 23.7859C98.6398 23.5088 98.5449 23.1608 98.5449 22.742V15.8952ZM108.103 24.5L105.536 15.2444H107.005L108.808 22.4121H108.894L110.77 15.2444H112.225L114.101 22.4166H114.186L115.985 15.2444H117.458L114.887 24.5H113.481L111.534 17.5673H111.461L109.513 24.5H108.103ZM119.96 24.6537C119.52 24.6537 119.122 24.5723 118.767 24.4096C118.411 24.2439 118.13 24.0044 117.922 23.691C117.717 23.3777 117.614 22.9936 117.614 22.5386C117.614 22.1469 117.69 21.8245 117.84 21.5715C117.991 21.3184 118.194 21.118 118.45 20.9704C118.706 20.8228 118.993 20.7113 119.309 20.636C119.625 20.5606 119.948 20.5034 120.276 20.4642C120.692 20.416 121.029 20.3769 121.289 20.3467C121.548 20.3136 121.736 20.2609 121.853 20.1885C121.971 20.1162 122.03 19.9987 122.03 19.836V19.8044C122.03 19.4097 121.918 19.1039 121.695 18.887C121.475 18.67 121.147 18.5616 120.71 18.5616C120.255 18.5616 119.897 18.6625 119.634 18.8644C119.375 19.0632 119.196 19.2847 119.097 19.5287L117.827 19.2395C117.977 18.8177 118.197 18.4772 118.487 18.2181C118.779 17.956 119.115 17.7662 119.494 17.6487C119.874 17.5282 120.273 17.4679 120.692 17.4679C120.969 17.4679 121.263 17.501 121.573 17.5673C121.887 17.6306 122.179 17.7481 122.45 17.9198C122.724 18.0916 122.949 18.3371 123.123 18.6565C123.298 18.9728 123.386 19.3841 123.386 19.8903V24.5H122.066V23.5509H122.012C121.924 23.7257 121.793 23.8974 121.618 24.0661C121.444 24.2349 121.219 24.375 120.945 24.4864C120.671 24.5979 120.342 24.6537 119.96 24.6537ZM120.254 23.569C120.627 23.569 120.947 23.4952 121.212 23.3476C121.48 23.1999 121.683 23.0071 121.822 22.7691C121.963 22.5281 122.034 22.2705 122.034 21.9963V21.1015C121.986 21.1497 121.893 21.1949 121.754 21.237C121.618 21.2762 121.463 21.3109 121.289 21.341C121.114 21.3681 120.944 21.3937 120.778 21.4178C120.612 21.4389 120.474 21.457 120.362 21.472C120.1 21.5052 119.86 21.5609 119.643 21.6393C119.43 21.7176 119.258 21.8306 119.128 21.9782C119.002 22.1228 118.938 22.3157 118.938 22.5567C118.938 22.8911 119.062 23.1442 119.309 23.3159C119.556 23.4847 119.871 23.569 120.254 23.569ZM126.537 15.2444V24.5H125.185V15.2444H126.537ZM129.706 15.2444V24.5H128.355V15.2444H129.706ZM134.516 24.6401C133.832 24.6401 133.243 24.494 132.748 24.2017C132.257 23.9065 131.878 23.4922 131.61 22.9589C131.344 22.4226 131.212 21.7944 131.212 21.0743C131.212 20.3633 131.344 19.7366 131.61 19.1943C131.878 18.652 132.251 18.2287 132.73 17.9244C133.212 17.6201 133.776 17.4679 134.421 17.4679C134.812 17.4679 135.192 17.5327 135.559 17.6622C135.927 17.7918 136.257 17.9952 136.549 18.2723C136.841 18.5495 137.072 18.9096 137.241 19.3525C137.409 19.7924 137.494 20.3271 137.494 20.9568V21.4359H131.976V20.4236H136.17C136.17 20.068 136.097 19.7532 135.953 19.479C135.808 19.2018 135.605 18.9834 135.343 18.8237C135.083 18.664 134.779 18.5842 134.43 18.5842C134.05 18.5842 133.719 18.6776 133.435 18.8644C133.155 19.0482 132.938 19.2892 132.785 19.5875C132.634 19.8827 132.559 20.2036 132.559 20.5501V21.341C132.559 21.805 132.64 22.1997 132.803 22.525C132.968 22.8504 133.199 23.099 133.494 23.2707C133.789 23.4395 134.134 23.5238 134.529 23.5238C134.785 23.5238 135.019 23.4877 135.23 23.4154C135.44 23.34 135.623 23.2286 135.776 23.0809C135.93 22.9333 136.048 22.751 136.129 22.5341L137.408 22.7646C137.305 23.1412 137.122 23.4711 136.857 23.7543C136.594 24.0345 136.264 24.2529 135.867 24.4096C135.472 24.5633 135.022 24.6401 134.516 24.6401ZM142.233 17.5583V18.6429H138.442V17.5583H142.233ZM139.459 15.8952H140.81V22.4618C140.81 22.7239 140.849 22.9212 140.927 23.0538C141.006 23.1834 141.107 23.2722 141.23 23.3205C141.357 23.3656 141.494 23.3882 141.641 23.3882C141.75 23.3882 141.845 23.3807 141.926 23.3656C142.007 23.3506 142.071 23.3385 142.116 23.3295L142.36 24.4458C142.282 24.4759 142.17 24.506 142.026 24.5362C141.881 24.5693 141.7 24.5874 141.483 24.5904C141.128 24.5964 140.796 24.5331 140.489 24.4006C140.182 24.268 139.933 24.0631 139.743 23.7859C139.553 23.5088 139.459 23.1608 139.459 22.742V15.8952Z" fill="#111111"/>
<defs>
<linearGradient id="paint0_linear_203_34" x1="87.5" y1="0" x2="87.5" y2="39" gradientUnits="userSpaceOnUse">
<stop/>
<stop offset="0.396875" stop-color="#242323" stop-opacity="0.666667"/>
<stop offset="0.708333" stop-color="#5D5A5A"/>
<stop offset="1" stop-color="#1E1E1E"/>
</linearGradient>
</defs>
</svg>
